STARTFONT 2.1
FONT -FontForge-uni 05_63-Book-R-Normal--8-80-72-72-P-66-ISO10646-1
SIZE 8 72 72
FONTBOUNDINGBOX 25 12 -2 -2
COMMENT "Generated by fontforge, http://fontforge.sourceforge.net"
COMMENT "(c)2002 | www.miniml.com | design by craig kroeger"
STARTPROPERTIES 39
FOUNDRY "FontForge"
FAMILY_NAME "uni 05_63"
WEIGHT_NAME "Book"
SLANT "R"
SETWIDTH_NAME "Normal"
ADD_STYLE_NAME ""
PIXEL_SIZE 8
POINT_SIZE 80
RESOLUTION_X 72
RESOLUTION_Y 72
SPACING "P"
AVERAGE_WIDTH 66
CHARSET_REGISTRY "ISO10646"
CHARSET_ENCODING "1"
FONTNAME_REGISTRY ""
CHARSET_COLLECTIONS "ISO8859-2 ISO8859-5 ISO8859-7 ISO8859-9 ISO8859-4 Symbol ISO10646-1"
FONT_NAME "Uni0563"
FACE_NAME "uni 05_63"
COPYRIGHT "(c)2002 | www.miniml.com | design by craig kroeger"
FONT_VERSION "Macromedia Fontographer 4.1.4 5/28/03"
FONT_ASCENT 6
FONT_DESCENT 2
UNDERLINE_POSITION -1
UNDERLINE_THICKNESS 1
X_HEIGHT 3
CAP_HEIGHT 4
RAW_ASCENT 800
RAW_DESCENT 200
NORM_SPACE 4
RELATIVE_WEIGHT 40
RELATIVE_SETWIDTH 50
SUPERSCRIPT_X 0
SUPERSCRIPT_Y 3
SUPERSCRIPT_SIZE 5
SUBSCRIPT_X 0
SUBSCRIPT_Y 1
SUBSCRIPT_SIZE 5
AVG_LOWERCASE_WIDTH 62
AVG_UPPERCASE_WIDTH 72
ENDPROPERTIES
CHARS 712
STARTCHAR space
ENCODING 32
SWIDTH 500 0
DWIDTH 4 0
BBX 1 1 0 0
BITMAP
00
ENDCHAR
STARTCHAR exclam
ENCODING 33
SWIDTH 500 0
DWIDTH 4 0
BBX 2 5 1 0
BITMAP
C0
C0
C0
00
C0
ENDCHAR
STARTCHAR quotedbl
ENCODING 34
SWIDTH 750 0
DWIDTH 6 0
BBX 5 2 0 3
BITMAP
D8
D8
ENDCHAR
STARTCHAR numbersign
ENCODING 35
SWIDTH 750 0
DWIDTH 6 0
BBX 5 5 0 0
BITMAP
50
F8
50
F8
50
ENDCHAR
STARTCHAR dollar
ENCODING 36
SWIDTH 875 0
DWIDTH 7 0
BBX 6 7 0 -1
BITMAP
30
7C
C0
78
0C
F8
30
ENDCHAR
STARTCHAR percent
ENCODING 37
SWIDTH 875 0
DWIDTH 7 0
BBX 6 5 0 0
BITMAP
CC
18
30
60
CC
ENDCHAR
STARTCHAR ampersand
ENCODING 38
SWIDTH 1000 0
DWIDTH 8 0
BBX 7 5 0 0
BITMAP
78
CC
78
C6
7C
ENDCHAR
STARTCHAR quotesingle
ENCODING 39
SWIDTH 375 0
DWIDTH 3 0
BBX 2 2 0 3
BITMAP
C0
C0
ENDCHAR
STARTCHAR parenleft
ENCODING 40
SWIDTH 500 0
DWIDTH 4 0
BBX 3 7 0 -1
BITMAP
60
C0
C0
C0
C0
C0
60
ENDCHAR
STARTCHAR parenright
ENCODING 41
SWIDTH 500 0
DWIDTH 4 0
BBX 3 7 0 -1
BITMAP
C0
60
60
60
60
60
C0
ENDCHAR
STARTCHAR asterisk
ENCODING 42
SWIDTH 875 0
DWIDTH 7 0
BBX 6 5 0 0
BITMAP
48
30
FC
30
48
ENDCHAR
STARTCHAR plus
ENCODING 43
SWIDTH 875 0
DWIDTH 7 0
BBX 6 5 0 0
BITMAP
30
30
FC
30
30
ENDCHAR
STARTCHAR comma
ENCODING 44
SWIDTH 500 0
DWIDTH 4 0
BBX 3 3 0 -2
BITMAP
60
60
C0
ENDCHAR
STARTCHAR hyphenminus
ENCODING 45
SWIDTH 625 0
DWIDTH 5 0
BBX 4 1 0 2
BITMAP
F0
ENDCHAR
STARTCHAR period
ENCODING 46
SWIDTH 375 0
DWIDTH 3 0
BBX 2 1 0 0
BITMAP
C0
ENDCHAR
STARTCHAR slash
ENCODING 47
SWIDTH 875 0
DWIDTH 7 0
BBX 6 5 0 0
BITMAP
0C
18
30
60
C0
ENDCHAR
STARTCHAR zero
ENCODING 48
SWIDTH 875 0
DWIDTH 7 0
BBX 6 5 0 0
BITMAP
78
CC
CC
CC
78
ENDCHAR
STARTCHAR one
ENCODING 49
SWIDTH 500 0
DWIDTH 4 0
BBX 3 5 0 0
BITMAP
E0
60
60
60
60
ENDCHAR
STARTCHAR two
ENCODING 50
SWIDTH 875 0
DWIDTH 7 0
BBX 6 5 0 0
BITMAP
F8
0C
7C
C0
FC
ENDCHAR
STARTCHAR three
ENCODING 51
SWIDTH 875 0
DWIDTH 7 0
BBX 6 5 0 0
BITMAP
F8
0C
78
0C
F8
ENDCHAR
STARTCHAR four
ENCODING 52
SWIDTH 875 0
DWIDTH 7 0
BBX 6 5 0 0
BITMAP
CC
CC
FC
0C
0C
ENDCHAR
STARTCHAR five
ENCODING 53
SWIDTH 875 0
DWIDTH 7 0
BBX 6 5 0 0
BITMAP
FC
C0
F8
0C
F8
ENDCHAR
STARTCHAR six
ENCODING 54
SWIDTH 875 0
DWIDTH 7 0
BBX 6 5 0 0
BITMAP
78
C0
F8
CC
78
ENDCHAR
STARTCHAR seven
ENCODING 55
SWIDTH 750 0
DWIDTH 6 0
BBX 5 5 0 0
BITMAP
F8
18
18
30
30
ENDCHAR
STARTCHAR eight
ENCODING 56
SWIDTH 875 0
DWIDTH 7 0
BBX 6 5 0 0
BITMAP
78
CC
78
CC
78
ENDCHAR
STARTCHAR nine
ENCODING 57
SWIDTH 875 0
DWIDTH 7 0
BBX 6 5 0 0
BITMAP
78
CC
7C
0C
78
ENDCHAR
STARTCHAR colon
ENCODING 58
SWIDTH 625 0
DWIDTH 5 0
BBX 2 3 1 1
BITMAP
C0
00
C0
ENDCHAR
STARTCHAR semicolon
ENCODING 59
SWIDTH 625 0
DWIDTH 5 0
BBX 3 6 0 -2
BITMAP
60
00
00
60
60
C0
ENDCHAR
STARTCHAR less
ENCODING 60
SWIDTH 625 0
DWIDTH 5 0
BBX 4 5 0 0
BITMAP
30
60
C0
60
30
ENDCHAR
STARTCHAR equal
ENCODING 61
SWIDTH 750 0
DWIDTH 6 0
BBX 5 3 0 1
BITMAP
F8
00
F8
ENDCHAR
STARTCHAR greater
ENCODING 62
SWIDTH 625 0
DWIDTH 5 0
BBX 4 5 0 0
BITMAP
C0
60
30
60
C0
ENDCHAR
STARTCHAR question
ENCODING 63
SWIDTH 750 0
DWIDTH 6 0
BBX 5 5 0 0
BITMAP
F0
18
70
00
60
ENDCHAR
STARTCHAR at
ENCODING 64
SWIDTH 875 0
DWIDTH 7 0
BBX 6 5 0 0
BITMAP
78
CC
DC
C0
78
ENDCHAR
STARTCHAR A
ENCODING 65
SWIDTH 875 0
DWIDTH 7 0
BBX 6 5 0 0
BITMAP
78
CC
FC
CC
CC
ENDCHAR
STARTCHAR B
ENCODING 66
SWIDTH 875 0
DWIDTH 7 0
BBX 6 5 0 0
BITMAP
F8
CC
F8
CC
F8
ENDCHAR
STARTCHAR C
ENCODING 67
SWIDTH 875 0
DWIDTH 7 0
BBX 6 5 0 0
BITMAP
78
CC
C0
CC
78
ENDCHAR
STARTCHAR D
ENCODING 68
SWIDTH 875 0
DWIDTH 7 0
BBX 6 5 0 0
BITMAP
F8
CC
CC
CC
F8
ENDCHAR
STARTCHAR E
ENCODING 69
SWIDTH 750 0
DWIDTH 6 0
BBX 5 5 0 0
BITMAP
F8
C0
F0
C0
F8
ENDCHAR
STARTCHAR F
ENCODING 70
SWIDTH 750 0
DWIDTH 6 0
BBX 5 5 0 0
BITMAP
F8
C0
F0
C0
C0
ENDCHAR
STARTCHAR G
ENCODING 71
SWIDTH 875 0
DWIDTH 7 0
BBX 6 5 0 0
BITMAP
7C
C0
DC
CC
7C
ENDCHAR
STARTCHAR H
ENCODING 72
SWIDTH 875 0
DWIDTH 7 0
BBX 6 5 0 0
BITMAP
CC
CC
FC
CC
CC
ENDCHAR
STARTCHAR I
ENCODING 73
SWIDTH 375 0
DWIDTH 3 0
BBX 2 5 0 0
BITMAP
C0
C0
C0
C0
C0
ENDCHAR
STARTCHAR J
ENCODING 74
SWIDTH 750 0
DWIDTH 6 0
BBX 5 5 0 0
BITMAP
18
18
18
D8
70
ENDCHAR
STARTCHAR K
ENCODING 75
SWIDTH 875 0
DWIDTH 7 0
BBX 6 5 0 0
BITMAP
CC
D8
F0
D8
CC
ENDCHAR
STARTCHAR L
ENCODING 76
SWIDTH 750 0
DWIDTH 6 0
BBX 5 5 0 0
BITMAP
C0
C0
C0
C0
F8
ENDCHAR
STARTCHAR M
ENCODING 77
SWIDTH 1000 0
DWIDTH 8 0
BBX 7 5 0 0
BITMAP
C6
EE
FE
D6
C6
ENDCHAR
STARTCHAR N
ENCODING 78
SWIDTH 875 0
DWIDTH 7 0
BBX 6 5 0 0
BITMAP
CC
EC
FC
DC
CC
ENDCHAR
STARTCHAR O
ENCODING 79
SWIDTH 875 0
DWIDTH 7 0
BBX 6 5 0 0
BITMAP
78
CC
CC
CC
78
ENDCHAR
STARTCHAR P
ENCODING 80
SWIDTH 875 0
DWIDTH 7 0
BBX 6 5 0 0
BITMAP
F8
CC
F8
C0
C0
ENDCHAR
STARTCHAR Q
ENCODING 81
SWIDTH 875 0
DWIDTH 7 0
BBX 6 6 0 -1
BITMAP
78
CC
CC
CC
78
0C
ENDCHAR
STARTCHAR R
ENCODING 82
SWIDTH 875 0
DWIDTH 7 0
BBX 6 5 0 0
BITMAP
F8
CC
F8
D8
CC
ENDCHAR
STARTCHAR S
ENCODING 83
SWIDTH 875 0
DWIDTH 7 0
BBX 6 5 0 0
BITMAP
7C
E0
78
1C
F8
ENDCHAR
STARTCHAR T
ENCODING 84
SWIDTH 875 0
DWIDTH 7 0
BBX 6 5 0 0
BITMAP
FC
30
30
30
30
ENDCHAR
STARTCHAR U
ENCODING 85
SWIDTH 875 0
DWIDTH 7 0
BBX 6 5 0 0
BITMAP
CC
CC
CC
CC
78
ENDCHAR
STARTCHAR V
ENCODING 86
SWIDTH 875 0
DWIDTH 7 0
BBX 6 5 0 0
BITMAP
CC
CC
CC
78
30
ENDCHAR
STARTCHAR W
ENCODING 87
SWIDTH 1125 0
DWIDTH 9 0
BBX 8 5 0 0
BITMAP
DB
DB
DB
DB
7E
ENDCHAR
STARTCHAR X
ENCODING 88
SWIDTH 875 0
DWIDTH 7 0
BBX 6 5 0 0
BITMAP
CC
78
30
78
CC
ENDCHAR
STARTCHAR Y
ENCODING 89
SWIDTH 875 0
DWIDTH 7 0
BBX 6 5 0 0
BITMAP
CC
CC
78
30
30
ENDCHAR
STARTCHAR Z
ENCODING 90
SWIDTH 875 0
DWIDTH 7 0
BBX 6 5 0 0
BITMAP
FC
18
30
60
FC
ENDCHAR
STARTCHAR bracketleft
ENCODING 91
SWIDTH 500 0
DWIDTH 4 0
BBX 3 7 0 -1
BITMAP
E0
C0
C0
C0
C0
C0
E0
ENDCHAR
STARTCHAR backslash
ENCODING 92
SWIDTH 875 0
DWIDTH 7 0
BBX 6 5 0 0
BITMAP
C0
60
30
18
0C
ENDCHAR
STARTCHAR bracketright
ENCODING 93
SWIDTH 500 0
DWIDTH 4 0
BBX 3 7 0 -1
BITMAP
E0
60
60
60
60
60
E0
ENDCHAR
STARTCHAR asciicircum
ENCODING 94
SWIDTH 750 0
DWIDTH 6 0
BBX 5 2 0 3
BITMAP
70
D8
ENDCHAR
STARTCHAR underscore
ENCODING 95
SWIDTH 750 0
DWIDTH 6 0
BBX 5 1 0 -1
BITMAP
F8
ENDCHAR
STARTCHAR grave
ENCODING 96
SWIDTH 500 0
DWIDTH 4 0
BBX 3 2 0 3
BITMAP
C0
60
ENDCHAR
STARTCHAR a
ENCODING 97
SWIDTH 750 0
DWIDTH 6 0
BBX 5 4 0 0
BITMAP
70
D8
D8
78
ENDCHAR
STARTCHAR b
ENCODING 98
SWIDTH 750 0
DWIDTH 6 0
BBX 5 5 0 0
BITMAP
C0
F0
D8
D8
F0
ENDCHAR
STARTCHAR c
ENCODING 99
SWIDTH 750 0
DWIDTH 6 0
BBX 5 4 0 0
BITMAP
78
C0
C0
78
ENDCHAR
STARTCHAR d
ENCODING 100
SWIDTH 750 0
DWIDTH 6 0
BBX 5 5 0 0
BITMAP
18
78
D8
D8
78
ENDCHAR
STARTCHAR e
ENCODING 101
SWIDTH 750 0
DWIDTH 6 0
BBX 5 4 0 0
BITMAP
78
D8
F0
78
ENDCHAR
STARTCHAR f
ENCODING 102
SWIDTH 500 0
DWIDTH 4 0
BBX 3 5 0 0
BITMAP
60
C0
E0
C0
C0
ENDCHAR
STARTCHAR g
ENCODING 103
SWIDTH 750 0
DWIDTH 6 0
BBX 5 6 0 -2
BITMAP
70
D8
D8
78
18
70
ENDCHAR
STARTCHAR h
ENCODING 104
SWIDTH 750 0
DWIDTH 6 0
BBX 5 5 0 0
BITMAP
C0
F0
D8
D8
D8
ENDCHAR
STARTCHAR i
ENCODING 105
SWIDTH 375 0
DWIDTH 3 0
BBX 2 5 0 0
BITMAP
C0
00
C0
C0
C0
ENDCHAR
STARTCHAR j
ENCODING 106
SWIDTH 500 0
DWIDTH 4 0
BBX 3 7 0 -2
BITMAP
60
00
60
60
60
60
C0
ENDCHAR
STARTCHAR k
ENCODING 107
SWIDTH 750 0
DWIDTH 6 0
BBX 5 5 0 0
BITMAP
C0
D8
F0
D8
D8
ENDCHAR
STARTCHAR l
ENCODING 108
SWIDTH 375 0
DWIDTH 3 0
BBX 2 5 0 0
BITMAP
C0
C0
C0
C0
C0
ENDCHAR
STARTCHAR m
ENCODING 109
SWIDTH 1125 0
DWIDTH 9 0
BBX 8 4 0 0
BITMAP
FE
DB
DB
DB
ENDCHAR
STARTCHAR n
ENCODING 110
SWIDTH 750 0
DWIDTH 6 0
BBX 5 4 0 0
BITMAP
F0
D8
D8
D8
ENDCHAR
STARTCHAR o
ENCODING 111
SWIDTH 750 0
DWIDTH 6 0
BBX 5 4 0 0
BITMAP
70
D8
D8
70
ENDCHAR
STARTCHAR p
ENCODING 112
SWIDTH 750 0
DWIDTH 6 0
BBX 5 6 0 -2
BITMAP
F0
D8
D8
F0
C0
C0
ENDCHAR
STARTCHAR q
ENCODING 113
SWIDTH 750 0
DWIDTH 6 0
BBX 5 6 0 -2
BITMAP
78
D8
D8
78
18
18
ENDCHAR
STARTCHAR r
ENCODING 114
SWIDTH 625 0
DWIDTH 5 0
BBX 4 4 0 0
BITMAP
D0
E0
C0
C0
ENDCHAR
STARTCHAR s
ENCODING 115
SWIDTH 750 0
DWIDTH 6 0
BBX 5 4 0 0
BITMAP
78
E0
38
F0
ENDCHAR
STARTCHAR t
ENCODING 116
SWIDTH 625 0
DWIDTH 5 0
BBX 4 5 0 0
BITMAP
60
F0
60
60
60
ENDCHAR
STARTCHAR u
ENCODING 117
SWIDTH 750 0
DWIDTH 6 0
BBX 5 4 0 0
BITMAP
D8
D8
D8
78
ENDCHAR
STARTCHAR v
ENCODING 118
SWIDTH 750 0
DWIDTH 6 0
BBX 5 4 0 0
BITMAP
D8
D8
D8
70
ENDCHAR
STARTCHAR w
ENCODING 119
SWIDTH 1125 0
DWIDTH 9 0
BBX 8 4 0 0
BITMAP
DB
DB
DB
7E
ENDCHAR
STARTCHAR x
ENCODING 120
SWIDTH 750 0
DWIDTH 6 0
BBX 5 4 0 0
BITMAP
D8
70
70
D8
ENDCHAR
STARTCHAR y
ENCODING 121
SWIDTH 750 0
DWIDTH 6 0
BBX 5 6 0 -2
BITMAP
D8
D8
D8
78
18
70
ENDCHAR
STARTCHAR z
ENCODING 122
SWIDTH 750 0
DWIDTH 6 0
BBX 5 4 0 0
BITMAP
F8
30
60
F8
ENDCHAR
STARTCHAR braceleft
ENCODING 123
SWIDTH 625 0
DWIDTH 5 0
BBX 4 7 0 -1
BITMAP
30
60
60
C0
60
60
30
ENDCHAR
STARTCHAR bar
ENCODING 124
SWIDTH 625 0
DWIDTH 5 0
BBX 2 7 1 -1
BITMAP
C0
C0
C0
C0
C0
C0
C0
ENDCHAR
STARTCHAR braceright
ENCODING 125
SWIDTH 625 0
DWIDTH 5 0
BBX 4 7 0 -1
BITMAP
C0
60
60
30
60
60
C0
ENDCHAR
STARTCHAR asciitilde
ENCODING 126
SWIDTH 875 0
DWIDTH 7 0
BBX 6 2 0 2
BITMAP
6C
D8
ENDCHAR
STARTCHAR nonbreakingspace
ENCODING 160
SWIDTH 500 0
DWIDTH 4 0
BBX 1 1 0 0
BITMAP
00
ENDCHAR
STARTCHAR exclamdown
ENCODING 161
SWIDTH 500 0
DWIDTH 4 0
BBX 2 5 1 0
BITMAP
C0
00
C0
C0
C0
ENDCHAR
STARTCHAR cent
ENCODING 162
SWIDTH 750 0
DWIDTH 6 0
BBX 5 6 0 -1
BITMAP
30
78
C0
C0
78
30
ENDCHAR
STARTCHAR sterling
ENCODING 163
SWIDTH 1000 0
DWIDTH 8 0
BBX 7 6 0 0
BITMAP
38
6C
60
F0
66
FC
ENDCHAR
STARTCHAR currency
ENCODING 164
SWIDTH 1000 0
DWIDTH 8 0
BBX 7 5 0 0
BITMAP
3C
66
F0
66
3C
ENDCHAR
STARTCHAR yen
ENCODING 165
SWIDTH 875 0
DWIDTH 7 0
BBX 6 5 0 0
BITMAP
CC
CC
78
FC
30
ENDCHAR
STARTCHAR brokenbar
ENCODING 166
SWIDTH 375 0
DWIDTH 3 0
BBX 2 5 0 0
BITMAP
C0
C0
00
C0
C0
ENDCHAR
STARTCHAR section
ENCODING 167
SWIDTH 750 0
DWIDTH 6 0
BBX 5 7 0 -1
BITMAP
70
C0
70
D8
70
18
70
ENDCHAR
STARTCHAR dieresis
ENCODING 168
SWIDTH 750 0
DWIDTH 6 0
BBX 5 2 0 3
BITMAP
D8
D8
ENDCHAR
STARTCHAR copyright
ENCODING 169
SWIDTH 750 0
DWIDTH 6 0
BBX 5 5 0 0
BITMAP
70
88
B8
88
70
ENDCHAR
STARTCHAR ordfeminine
ENCODING 170
SWIDTH 750 0
DWIDTH 6 0
BBX 5 5 0 0
BITMAP
70
D8
78
00
F8
ENDCHAR
STARTCHAR guillemotleft
ENCODING 171
SWIDTH 1000 0
DWIDTH 8 0
BBX 7 3 0 1
BITMAP
66
CC
66
ENDCHAR
STARTCHAR logicalnot
ENCODING 172
SWIDTH 875 0
DWIDTH 7 0
BBX 6 3 0 0
BITMAP
FC
0C
0C
ENDCHAR
STARTCHAR minus
ENCODING 173
SWIDTH 625 0
DWIDTH 5 0
BBX 4 1 0 2
BITMAP
F0
ENDCHAR
STARTCHAR registered
ENCODING 174
SWIDTH 750 0
DWIDTH 6 0
BBX 5 5 0 0
BITMAP
70
88
B8
B8
70
ENDCHAR
STARTCHAR macron
ENCODING 175
SWIDTH 500 0
DWIDTH 4 0
BBX 3 1 0 4
BITMAP
E0
ENDCHAR
STARTCHAR degree
ENCODING 176
SWIDTH 750 0
DWIDTH 6 0
BBX 5 3 0 2
BITMAP
70
D8
70
ENDCHAR
STARTCHAR plusminus
ENCODING 177
SWIDTH 875 0
DWIDTH 7 0
BBX 6 6 0 -1
BITMAP
30
30
FC
30
30
FC
ENDCHAR
STARTCHAR twosuperior
ENCODING 178
SWIDTH 625 0
DWIDTH 5 0
BBX 4 4 0 1
BITMAP
E0
30
60
F0
ENDCHAR
STARTCHAR threesuperior
ENCODING 179
SWIDTH 625 0
DWIDTH 5 0
BBX 4 4 0 1
BITMAP
E0
70
30
E0
ENDCHAR
STARTCHAR acute
ENCODING 180
SWIDTH 500 0
DWIDTH 4 0
BBX 3 2 0 3
BITMAP
60
C0
ENDCHAR
STARTCHAR micro
ENCODING 181
SWIDTH 875 0
DWIDTH 7 0
BBX 6 6 0 -2
BITMAP
D8
D8
D8
EC
C0
C0
ENDCHAR
STARTCHAR paragraph
ENCODING 182
SWIDTH 1000 0
DWIDTH 8 0
BBX 7 5 0 0
BITMAP
7E
F6
7E
36
36
ENDCHAR
STARTCHAR periodcentered
ENCODING 183
SWIDTH 375 0
DWIDTH 3 0
BBX 2 2 0 2
BITMAP
C0
C0
ENDCHAR
STARTCHAR cedilla
ENCODING 184
SWIDTH 500 0
DWIDTH 4 0
BBX 3 3 0 -2
BITMAP
60
60
C0
ENDCHAR
STARTCHAR onesuperior
ENCODING 185
SWIDTH 375 0
DWIDTH 3 0
BBX 2 4 0 1
BITMAP
C0
C0
C0
C0
ENDCHAR
STARTCHAR ordmasculine
ENCODING 186
SWIDTH 750 0
DWIDTH 6 0
BBX 5 5 0 0
BITMAP
70
D8
70
00
F8
ENDCHAR
STARTCHAR guillemotright
ENCODING 187
SWIDTH 1000 0
DWIDTH 8 0
BBX 7 3 0 1
BITMAP
CC
66
CC
ENDCHAR
STARTCHAR onequarter
ENCODING 188
SWIDTH 1125 0
DWIDTH 9 0
BBX 8 5 0 0
BITMAP
CC
D8
FB
6F
C3
ENDCHAR
STARTCHAR onehalf
ENCODING 189
SWIDTH 1125 0
DWIDTH 9 0
BBX 8 5 0 0
BITMAP
CC
DE
F3
66
CF
ENDCHAR
STARTCHAR threequarters
ENCODING 190
SWIDTH 1250 0
DWIDTH 10 0
BBX 9 5 0 0
BITMAP
E600
7C00
3D80
F780
6180
ENDCHAR
STARTCHAR questiondown
ENCODING 191
SWIDTH 750 0
DWIDTH 6 0
BBX 5 5 0 0
BITMAP
30
00
70
C0
78
ENDCHAR
STARTCHAR Agrave
ENCODING 192
SWIDTH 875 0
DWIDTH 7 0
BBX 6 8 0 0
BITMAP
60
30
00
78
CC
FC
CC
CC
ENDCHAR
STARTCHAR Aacute
ENCODING 193
SWIDTH 875 0
DWIDTH 7 0
BBX 6 8 0 0
BITMAP
18
30
00
78
CC
FC
CC
CC
ENDCHAR
STARTCHAR Acircumflex
ENCODING 194
SWIDTH 875 0
DWIDTH 7 0
BBX 6 8 0 0
BITMAP
78
CC
00
78
CC
FC
CC
CC
ENDCHAR
STARTCHAR Atilde
ENCODING 195
SWIDTH 875 0
DWIDTH 7 0
BBX 6 8 0 0
BITMAP
6C
D8
00
78
CC
FC
CC
CC
ENDCHAR
STARTCHAR Adieresis
ENCODING 196
SWIDTH 875 0
DWIDTH 7 0
BBX 6 8 0 0
BITMAP
CC
CC
00
78
CC
FC
CC
CC
ENDCHAR
STARTCHAR Aring
ENCODING 197
SWIDTH 875 0
DWIDTH 7 0
BBX 6 8 0 0
BITMAP
78
CC
78
78
CC
FC
CC
CC
ENDCHAR
STARTCHAR AE
ENCODING 198
SWIDTH 1375 0
DWIDTH 11 0
BBX 10 5 0 0
BITMAP
7FC0
CC00
FF80
CC00
CFC0
ENDCHAR
STARTCHAR Ccedilla
ENCODING 199
SWIDTH 875 0
DWIDTH 7 0
BBX 6 7 0 -2
BITMAP
78
CC
C0
CC
78
30
60
ENDCHAR
STARTCHAR Egrave
ENCODING 200
SWIDTH 750 0
DWIDTH 6 0
BBX 5 8 0 0
BITMAP
60
30
00
F8
C0
F0
C0
F8
ENDCHAR
STARTCHAR Eacute
ENCODING 201
SWIDTH 750 0
DWIDTH 6 0
BBX 5 8 0 0
BITMAP
18
30
00
F8
C0
F0
C0
F8
ENDCHAR
STARTCHAR Ecircumflex
ENCODING 202
SWIDTH 750 0
DWIDTH 6 0
BBX 5 8 0 0
BITMAP
70
D8
00
F8
C0
F0
C0
F8
ENDCHAR
STARTCHAR Edieresis
ENCODING 203
SWIDTH 750 0
DWIDTH 6 0
BBX 5 8 0 0
BITMAP
D8
D8
00
F8
C0
F0
C0
F8
ENDCHAR
STARTCHAR Igrave
ENCODING 204
SWIDTH 375 0
DWIDTH 3 0
BBX 3 8 -1 0
BITMAP
C0
60
00
60
60
60
60
60
ENDCHAR
STARTCHAR Iacute
ENCODING 205
SWIDTH 375 0
DWIDTH 3 0
BBX 3 8 0 0
BITMAP
60
C0
00
C0
C0
C0
C0
C0
ENDCHAR
STARTCHAR Icircumflex
ENCODING 206
SWIDTH 375 0
DWIDTH 3 0
BBX 6 8 -2 0
BITMAP
78
CC
00
30
30
30
30
30
ENDCHAR
STARTCHAR Idieresis
ENCODING 207
SWIDTH 375 0
DWIDTH 3 0
BBX 6 8 -2 0
BITMAP
CC
CC
00
30
30
30
30
30
ENDCHAR
STARTCHAR Eth
ENCODING 208
SWIDTH 1000 0
DWIDTH 8 0
BBX 7 5 0 0
BITMAP
7C
66
F6
66
7C
ENDCHAR
STARTCHAR Ntilde
ENCODING 209
SWIDTH 875 0
DWIDTH 7 0
BBX 6 8 0 0
BITMAP
6C
D8
00
CC
EC
FC
DC
CC
ENDCHAR
STARTCHAR Ograve
ENCODING 210
SWIDTH 875 0
DWIDTH 7 0
BBX 6 8 0 0
BITMAP
60
30
00
78
CC
CC
CC
78
ENDCHAR
STARTCHAR Oacute
ENCODING 211
SWIDTH 875 0
DWIDTH 7 0
BBX 6 8 0 0
BITMAP
18
30
00
78
CC
CC
CC
78
ENDCHAR
STARTCHAR Ocircumflex
ENCODING 212
SWIDTH 875 0
DWIDTH 7 0
BBX 6 8 0 0
BITMAP
78
CC
00
78
CC
CC
CC
78
ENDCHAR
STARTCHAR Otilde
ENCODING 213
SWIDTH 875 0
DWIDTH 7 0
BBX 6 8 0 0
BITMAP
6C
D8
00
78
CC
CC
CC
78
ENDCHAR
STARTCHAR Odieresis
ENCODING 214
SWIDTH 875 0
DWIDTH 7 0
BBX 6 8 0 0
BITMAP
CC
CC
00
78
CC
CC
CC
78
ENDCHAR
STARTCHAR multiply
ENCODING 215
SWIDTH 750 0
DWIDTH 6 0
BBX 5 4 0 0
BITMAP
D8
70
70
D8
ENDCHAR
STARTCHAR Oslash
ENCODING 216
SWIDTH 1000 0
DWIDTH 8 0
BBX 7 5 0 0
BITMAP
7C
CE
D6
E6
7C
ENDCHAR
STARTCHAR Ugrave
ENCODING 217
SWIDTH 875 0
DWIDTH 7 0
BBX 6 8 0 0
BITMAP
60
30
00
CC
CC
CC
CC
78
ENDCHAR
STARTCHAR Uacute
ENCODING 218
SWIDTH 875 0
DWIDTH 7 0
BBX 6 8 0 0
BITMAP
18
30
00
CC
CC
CC
CC
78
ENDCHAR
STARTCHAR Ucircumflex
ENCODING 219
SWIDTH 875 0
DWIDTH 7 0
BBX 6 8 0 0
BITMAP
78
CC
00
CC
CC
CC
CC
78
ENDCHAR
STARTCHAR Udieresis
ENCODING 220
SWIDTH 875 0
DWIDTH 7 0
BBX 6 8 0 0
BITMAP
CC
CC
00
CC
CC
CC
CC
78
ENDCHAR
STARTCHAR Yacute
ENCODING 221
SWIDTH 875 0
DWIDTH 7 0
BBX 6 8 0 0
BITMAP
18
30
00
CC
CC
78
30
30
ENDCHAR
STARTCHAR Thorn
ENCODING 222
SWIDTH 750 0
DWIDTH 6 0
BBX 5 5 0 0
BITMAP
C0
F0
D8
F0
C0
ENDCHAR
STARTCHAR germandbls
ENCODING 223
SWIDTH 875 0
DWIDTH 7 0
BBX 6 5 0 0
BITMAP
78
CC
D8
CC
D8
ENDCHAR
STARTCHAR agrave
ENCODING 224
SWIDTH 750 0
DWIDTH 6 0
BBX 5 7 0 0
BITMAP
60
30
00
70
D8
D8
78
ENDCHAR
STARTCHAR aacute
ENCODING 225
SWIDTH 750 0
DWIDTH 6 0
BBX 5 7 0 0
BITMAP
18
30
00
70
D8
D8
78
ENDCHAR
STARTCHAR acircumflex
ENCODING 226
SWIDTH 750 0
DWIDTH 6 0
BBX 5 7 0 0
BITMAP
70
D8
00
70
D8
D8
78
ENDCHAR
STARTCHAR atilde
ENCODING 227
SWIDTH 750 0
DWIDTH 6 0
BBX 6 7 0 0
BITMAP
6C
D8
00
70
D8
D8
78
ENDCHAR
STARTCHAR adieresis
ENCODING 228
SWIDTH 750 0
DWIDTH 6 0
BBX 5 7 0 0
BITMAP
D8
D8
00
70
D8
D8
78
ENDCHAR
STARTCHAR aring
ENCODING 229
SWIDTH 750 0
DWIDTH 6 0
BBX 5 7 0 0
BITMAP
70
D8
70
70
D8
D8
78
ENDCHAR
STARTCHAR ae
ENCODING 230
SWIDTH 1250 0
DWIDTH 10 0
BBX 9 4 0 0
BITMAP
7780
DD80
DF00
7F80
ENDCHAR
STARTCHAR ccedilla
ENCODING 231
SWIDTH 750 0
DWIDTH 6 0
BBX 5 6 0 -2
BITMAP
78
C0
C0
78
30
60
ENDCHAR
STARTCHAR egrave
ENCODING 232
SWIDTH 750 0
DWIDTH 6 0
BBX 5 7 0 0
BITMAP
60
30
00
78
D8
F0
78
ENDCHAR
STARTCHAR eacute
ENCODING 233
SWIDTH 750 0
DWIDTH 6 0
BBX 5 7 0 0
BITMAP
30
60
00
78
D8
F0
78
ENDCHAR
STARTCHAR ecircumflex
ENCODING 234
SWIDTH 750 0
DWIDTH 6 0
BBX 5 7 0 0
BITMAP
70
D8
00
78
D8
F0
78
ENDCHAR
STARTCHAR edieresis
ENCODING 235
SWIDTH 750 0
DWIDTH 6 0
BBX 5 7 0 0
BITMAP
D8
D8
00
78
D8
F0
78
ENDCHAR
STARTCHAR igrave
ENCODING 236
SWIDTH 375 0
DWIDTH 3 0
BBX 3 7 -1 0
BITMAP
C0
60
00
60
60
60
60
ENDCHAR
STARTCHAR iacute
ENCODING 237
SWIDTH 375 0
DWIDTH 3 0
BBX 3 7 0 0
BITMAP
60
C0
00
C0
C0
C0
C0
ENDCHAR
STARTCHAR icircumflex
ENCODING 238
SWIDTH 375 0
DWIDTH 3 0
BBX 6 7 -2 0
BITMAP
78
CC
00
30
30
30
30
ENDCHAR
STARTCHAR idieresis
ENCODING 239
SWIDTH 375 0
DWIDTH 3 0
BBX 6 7 -2 0
BITMAP
CC
CC
00
30
30
30
30
ENDCHAR
STARTCHAR eth
ENCODING 240
SWIDTH 750 0
DWIDTH 6 0
BBX 5 6 0 0
BITMAP
68
30
78
D8
D8
70
ENDCHAR
STARTCHAR ntilde
ENCODING 241
SWIDTH 750 0
DWIDTH 6 0
BBX 6 7 0 0
BITMAP
6C
D8
00
F0
D8
D8
D8
ENDCHAR
STARTCHAR ograve
ENCODING 242
SWIDTH 750 0
DWIDTH 6 0
BBX 5 7 0 0
BITMAP
60
30
00
70
D8
D8
70
ENDCHAR
STARTCHAR oacute
ENCODING 243
SWIDTH 750 0
DWIDTH 6 0
BBX 5 7 0 0
BITMAP
30
60
00
70
D8
D8
70
ENDCHAR
STARTCHAR ocircumflex
ENCODING 244
SWIDTH 750 0
DWIDTH 6 0
BBX 5 7 0 0
BITMAP
70
D8
00
70
D8
D8
70
ENDCHAR
STARTCHAR otilde
ENCODING 245
SWIDTH 750 0
DWIDTH 6 0
BBX 6 7 0 0
BITMAP
6C
D8
00
70
D8
D8
70
ENDCHAR
STARTCHAR odieresis
ENCODING 246
SWIDTH 750 0
DWIDTH 6 0
BBX 5 7 0 0
BITMAP
D8
D8
00
70
D8
D8
70
ENDCHAR
STARTCHAR divide
ENCODING 247
SWIDTH 875 0
DWIDTH 7 0
BBX 6 5 0 0
BITMAP
30
00
FC
00
30
ENDCHAR
STARTCHAR oslash
ENCODING 248
SWIDTH 875 0
DWIDTH 7 0
BBX 6 4 0 0
BITMAP
38
DC
EC
70
ENDCHAR
STARTCHAR ugrave
ENCODING 249
SWIDTH 750 0
DWIDTH 6 0
BBX 5 7 0 0
BITMAP
60
30
00
D8
D8
D8
78
ENDCHAR
STARTCHAR uacute
ENCODING 250
SWIDTH 750 0
DWIDTH 6 0
BBX 5 7 0 0
BITMAP
30
60
00
D8
D8
D8
78
ENDCHAR
STARTCHAR ucircumflex
ENCODING 251
SWIDTH 750 0
DWIDTH 6 0
BBX 5 7 0 0
BITMAP
70
D8
00
D8
D8
D8
78
ENDCHAR
STARTCHAR udieresis
ENCODING 252
SWIDTH 750 0
DWIDTH 6 0
BBX 5 7 0 0
BITMAP
D8
D8
00
D8
D8
D8
78
ENDCHAR
STARTCHAR yacute
ENCODING 253
SWIDTH 750 0
DWIDTH 6 0
BBX 5 9 0 -2
BITMAP
30
60
00
D8
D8
D8
78
18
70
ENDCHAR
STARTCHAR thorn
ENCODING 254
SWIDTH 750 0
DWIDTH 6 0
BBX 5 7 0 -2
BITMAP
C0
C0
F0
D8
F0
C0
C0
ENDCHAR
STARTCHAR ydieresis
ENCODING 255
SWIDTH 750 0
DWIDTH 6 0
BBX 5 9 0 -2
BITMAP
D8
D8
00
D8
D8
D8
78
18
70
ENDCHAR
STARTCHAR Amacron
ENCODING 256
SWIDTH 875 0
DWIDTH 7 0
BBX 6 7 0 0
BITMAP
78
00
78
CC
FC
CC
CC
ENDCHAR
STARTCHAR amacron
ENCODING 257
SWIDTH 750 0
DWIDTH 6 0
BBX 5 6 0 0
BITMAP
F8
00
70
D8
D8
78
ENDCHAR
STARTCHAR Abreve
ENCODING 258
SWIDTH 875 0
DWIDTH 7 0
BBX 6 8 0 0
BITMAP
CC
78
00
78
CC
FC
CC
CC
ENDCHAR
STARTCHAR abreve
ENCODING 259
SWIDTH 750 0
DWIDTH 6 0
BBX 5 7 0 0
BITMAP
D8
70
00
70
D8
D8
78
ENDCHAR
STARTCHAR Aogonek
ENCODING 260
SWIDTH 875 0
DWIDTH 7 0
BBX 6 7 0 -2
BITMAP
78
CC
FC
CC
CC
18
0C
ENDCHAR
STARTCHAR aogonek
ENCODING 261
SWIDTH 750 0
DWIDTH 6 0
BBX 5 6 0 -2
BITMAP
70
D8
D8
78
30
18
ENDCHAR
STARTCHAR Cacute
ENCODING 262
SWIDTH 875 0
DWIDTH 7 0
BBX 6 8 0 0
BITMAP
18
30
00
78
CC
C0
CC
78
ENDCHAR
STARTCHAR cacute
ENCODING 263
SWIDTH 750 0
DWIDTH 6 0
BBX 5 7 0 0
BITMAP
18
30
00
78
C0
C0
78
ENDCHAR
STARTCHAR Ccircumflex
ENCODING 264
SWIDTH 875 0
DWIDTH 7 0
BBX 6 8 0 0
BITMAP
78
CC
00
78
CC
C0
CC
78
ENDCHAR
STARTCHAR ccircumflex
ENCODING 265
SWIDTH 750 0
DWIDTH 6 0
BBX 5 7 0 0
BITMAP
70
D8
00
78
C0
C0
78
ENDCHAR
STARTCHAR Cdot
ENCODING 266
SWIDTH 875 0
DWIDTH 7 0
BBX 6 7 0 0
BITMAP
30
00
78
CC
C0
CC
78
ENDCHAR
STARTCHAR cdot
ENCODING 267
SWIDTH 750 0
DWIDTH 6 0
BBX 5 6 0 0
BITMAP
30
00
78
C0
C0
78
ENDCHAR
STARTCHAR Ccaron
ENCODING 268
SWIDTH 875 0
DWIDTH 7 0
BBX 6 8 0 0
BITMAP
CC
78
00
78
CC
C0
CC
78
ENDCHAR
STARTCHAR ccaron
ENCODING 269
SWIDTH 750 0
DWIDTH 6 0
BBX 5 7 0 0
BITMAP
D8
70
00
78
C0
C0
78
ENDCHAR
STARTCHAR Dcaron
ENCODING 270
SWIDTH 875 0
DWIDTH 7 0
BBX 6 8 0 0
BITMAP
CC
78
00
F8
CC
CC
CC
F8
ENDCHAR
STARTCHAR dcaron
ENCODING 271
SWIDTH 1125 0
DWIDTH 9 0
BBX 8 5 0 0
BITMAP
1B
7B
D8
D8
78
ENDCHAR
STARTCHAR Dmacron
ENCODING 272
SWIDTH 1000 0
DWIDTH 8 0
BBX 7 5 0 0
BITMAP
7C
66
F6
66
7C
ENDCHAR
STARTCHAR dcroat
ENCODING 273
SWIDTH 750 0
DWIDTH 6 0
BBX 5 6 0 0
BITMAP
68
30
78
D8
D8
70
ENDCHAR
STARTCHAR Emacron
ENCODING 274
SWIDTH 750 0
DWIDTH 6 0
BBX 5 7 0 0
BITMAP
F0
00
F8
C0
F0
C0
F8
ENDCHAR
STARTCHAR emacron
ENCODING 275
SWIDTH 750 0
DWIDTH 6 0
BBX 5 6 0 0
BITMAP
F8
00
78
D8
F0
78
ENDCHAR
STARTCHAR Ebreve
ENCODING 276
SWIDTH 750 0
DWIDTH 6 0
BBX 5 8 0 0
BITMAP
70
D8
00
F8
C0
F0
C0
F8
ENDCHAR
STARTCHAR ebreve
ENCODING 277
SWIDTH 750 0
DWIDTH 6 0
BBX 5 7 0 0
BITMAP
70
D8
00
78
D8
F0
78
ENDCHAR
STARTCHAR Edot
ENCODING 278
SWIDTH 750 0
DWIDTH 6 0
BBX 5 7 0 0
BITMAP
30
00
F8
C0
F0
C0
F8
ENDCHAR
STARTCHAR edot
ENCODING 279
SWIDTH 750 0
DWIDTH 6 0
BBX 5 6 0 0
BITMAP
30
00
78
D8
F0
78
ENDCHAR
STARTCHAR Eogonek
ENCODING 280
SWIDTH 750 0
DWIDTH 6 0
BBX 5 7 0 -2
BITMAP
F8
C0
F0
C0
F8
30
18
ENDCHAR
STARTCHAR eogonek
ENCODING 281
SWIDTH 750 0
DWIDTH 6 0
BBX 5 6 0 -2
BITMAP
78
D8
F0
78
30
18
ENDCHAR
STARTCHAR Ecaron
ENCODING 282
SWIDTH 750 0
DWIDTH 6 0
BBX 6 8 0 0
BITMAP
CC
78
00
F8
C0
F0
C0
F8
ENDCHAR
STARTCHAR ecaron
ENCODING 283
SWIDTH 750 0
DWIDTH 6 0
BBX 5 7 0 0
BITMAP
D8
70
00
78
D8
F0
78
ENDCHAR
STARTCHAR Gcircumflex
ENCODING 284
SWIDTH 875 0
DWIDTH 7 0
BBX 6 8 0 0
BITMAP
78
CC
00
7C
C0
DC
CC
7C
ENDCHAR
STARTCHAR gcircumflex
ENCODING 285
SWIDTH 750 0
DWIDTH 6 0
BBX 5 9 0 -2
BITMAP
70
D8
00
70
D8
D8
78
18
70
ENDCHAR
STARTCHAR Gbreve
ENCODING 286
SWIDTH 875 0
DWIDTH 7 0
BBX 6 8 0 0
BITMAP
CC
78
00
7C
C0
DC
CC
7C
ENDCHAR
STARTCHAR gbreve
ENCODING 287
SWIDTH 750 0
DWIDTH 6 0
BBX 5 9 0 -2
BITMAP
D8
70
00
70
D8
D8
78
18
70
ENDCHAR
STARTCHAR Gdot
ENCODING 288
SWIDTH 875 0
DWIDTH 7 0
BBX 6 7 0 0
BITMAP
30
00
7C
C0
DC
CC
7C
ENDCHAR
STARTCHAR gdot
ENCODING 289
SWIDTH 750 0
DWIDTH 6 0
BBX 5 8 0 -2
BITMAP
30
00
70
D8
D8
78
18
70
ENDCHAR
STARTCHAR Gcedilla
ENCODING 290
SWIDTH 875 0
DWIDTH 7 0
BBX 6 7 0 -2
BITMAP
7C
C0
DC
CC
7C
30
60
ENDCHAR
STARTCHAR gcedilla
ENCODING 291
SWIDTH 750 0
DWIDTH 6 0
BBX 5 9 0 -2
BITMAP
18
30
00
70
D8
D8
78
18
70
ENDCHAR
STARTCHAR Hcircumflex
ENCODING 292
SWIDTH 875 0
DWIDTH 7 0
BBX 6 8 0 0
BITMAP
78
CC
00
CC
CC
FC
CC
CC
ENDCHAR
STARTCHAR hcircumflex
ENCODING 293
SWIDTH 750 0
DWIDTH 6 0
BBX 5 8 0 0
BITMAP
70
D8
00
C0
F0
D8
D8
D8
ENDCHAR
STARTCHAR Hbar
ENCODING 294
SWIDTH 1125 0
DWIDTH 9 0
BBX 8 5 0 0
BITMAP
FF
66
7E
66
66
ENDCHAR
STARTCHAR hbar
ENCODING 295
SWIDTH 875 0
DWIDTH 7 0
BBX 6 5 0 0
BITMAP
F8
60
78
6C
6C
ENDCHAR
STARTCHAR Itilde
ENCODING 296
SWIDTH 375 0
DWIDTH 3 0
BBX 6 8 -2 0
BITMAP
6C
D8
00
30
30
30
30
30
ENDCHAR
STARTCHAR itilde
ENCODING 297
SWIDTH 375 0
DWIDTH 3 0
BBX 6 6 -2 0
BITMAP
6C
D8
00
30
30
30
ENDCHAR
STARTCHAR Imacron
ENCODING 298
SWIDTH 375 0
DWIDTH 3 0
BBX 4 7 -1 0
BITMAP
F0
00
60
60
60
60
60
ENDCHAR
STARTCHAR imacron
ENCODING 299
SWIDTH 375 0
DWIDTH 3 0
BBX 4 5 -1 0
BITMAP
F0
00
60
60
60
ENDCHAR
STARTCHAR Ibreve
ENCODING 300
SWIDTH 375 0
DWIDTH 3 0
BBX 6 8 -2 0
BITMAP
CC
78
00
30
30
30
30
30
ENDCHAR
STARTCHAR ibreve
ENCODING 301
SWIDTH 375 0
DWIDTH 3 0
BBX 6 6 -2 0
BITMAP
CC
78
00
30
30
30
ENDCHAR
STARTCHAR Iogonek
ENCODING 302
SWIDTH 500 0
DWIDTH 4 0
BBX 3 7 0 -2
BITMAP
60
60
60
60
60
C0
60
ENDCHAR
STARTCHAR iogonek
ENCODING 303
SWIDTH 500 0
DWIDTH 4 0
BBX 3 7 0 -2
BITMAP
60
00
60
60
60
C0
60
ENDCHAR
STARTCHAR Idotaccent
ENCODING 304
SWIDTH 375 0
DWIDTH 3 0
BBX 2 7 0 0
BITMAP
C0
00
C0
C0
C0
C0
C0
ENDCHAR
STARTCHAR dotlessi
ENCODING 305
SWIDTH 375 0
DWIDTH 3 0
BBX 2 3 0 0
BITMAP
C0
C0
C0
ENDCHAR
STARTCHAR IJ
ENCODING 306
SWIDTH 875 0
DWIDTH 7 0
BBX 6 5 0 0
BITMAP
CC
CC
CC
CC
D8
ENDCHAR
STARTCHAR ij
ENCODING 307
SWIDTH 750 0
DWIDTH 6 0
BBX 5 7 0 -2
BITMAP
D8
00
D8
D8
D8
18
30
ENDCHAR
STARTCHAR Jcircumflex
ENCODING 308
SWIDTH 625 0
DWIDTH 5 0
BBX 6 8 0 0
BITMAP
78
CC
00
30
30
30
30
E0
ENDCHAR
STARTCHAR jcircumflex
ENCODING 309
SWIDTH 500 0
DWIDTH 4 0
BBX 6 8 -1 -2
BITMAP
78
CC
00
30
30
30
30
60
ENDCHAR
STARTCHAR Kcedilla
ENCODING 310
SWIDTH 875 0
DWIDTH 7 0
BBX 6 7 0 -2
BITMAP
CC
D8
F0
D8
CC
30
60
ENDCHAR
STARTCHAR kcedilla
ENCODING 311
SWIDTH 750 0
DWIDTH 6 0
BBX 5 7 0 -2
BITMAP
C0
D8
F0
D8
D8
30
60
ENDCHAR
STARTCHAR kra
ENCODING 312
SWIDTH 750 0
DWIDTH 6 0
BBX 5 4 0 0
BITMAP
D8
F0
F8
D8
ENDCHAR
STARTCHAR Lacute
ENCODING 313
SWIDTH 750 0
DWIDTH 6 0
BBX 5 8 0 0
BITMAP
60
C0
00
C0
C0
C0
C0
F8
ENDCHAR
STARTCHAR lacute
ENCODING 314
SWIDTH 375 0
DWIDTH 3 0
BBX 3 8 0 0
BITMAP
60
C0
00
C0
C0
C0
C0
C0
ENDCHAR
STARTCHAR Lcedilla
ENCODING 315
SWIDTH 750 0
DWIDTH 6 0
BBX 5 7 0 -2
BITMAP
C0
C0
C0
C0
F8
30
60
ENDCHAR
STARTCHAR lcedilla
ENCODING 316
SWIDTH 375 0
DWIDTH 3 0
BBX 3 7 0 -2
BITMAP
C0
C0
C0
C0
C0
60
C0
ENDCHAR
STARTCHAR Lcaron
ENCODING 317
SWIDTH 750 0
DWIDTH 6 0
BBX 5 5 0 0
BITMAP
D8
F0
C0
C0
F8
ENDCHAR
STARTCHAR lcaron
ENCODING 318
SWIDTH 750 0
DWIDTH 6 0
BBX 5 5 0 0
BITMAP
D8
F0
C0
C0
C0
ENDCHAR
STARTCHAR Ldot
ENCODING 319
SWIDTH 875 0
DWIDTH 7 0
BBX 6 5 0 0
BITMAP
C0
C0
CC
C0
F8
ENDCHAR
STARTCHAR ldot
ENCODING 320
SWIDTH 750 0
DWIDTH 6 0
BBX 5 5 0 0
BITMAP
C0
C0
D8
C0
C0
ENDCHAR
STARTCHAR Lslash
ENCODING 321
SWIDTH 875 0
DWIDTH 7 0
BBX 6 5 0 0
BITMAP
60
70
60
E0
7C
ENDCHAR
STARTCHAR lslash
ENCODING 322
SWIDTH 625 0
DWIDTH 5 0
BBX 4 5 0 0
BITMAP
60
70
60
E0
60
ENDCHAR
STARTCHAR Nacute
ENCODING 323
SWIDTH 875 0
DWIDTH 7 0
BBX 6 8 0 0
BITMAP
18
30
00
CC
EC
FC
DC
CC
ENDCHAR
STARTCHAR nacute
ENCODING 324
SWIDTH 750 0
DWIDTH 6 0
BBX 5 7 0 0
BITMAP
30
60
00
F0
D8
D8
D8
ENDCHAR
STARTCHAR Ncedilla
ENCODING 325
SWIDTH 875 0
DWIDTH 7 0
BBX 6 7 0 -2
BITMAP
CC
EC
FC
DC
CC
30
60
ENDCHAR
STARTCHAR ncedilla
ENCODING 326
SWIDTH 750 0
DWIDTH 6 0
BBX 5 6 0 -2
BITMAP
F0
D8
D8
D8
30
60
ENDCHAR
STARTCHAR Ncaron
ENCODING 327
SWIDTH 875 0
DWIDTH 7 0
BBX 6 8 0 0
BITMAP
CC
78
00
CC
EC
FC
DC
CC
ENDCHAR
STARTCHAR ncaron
ENCODING 328
SWIDTH 750 0
DWIDTH 6 0
BBX 5 7 0 0
BITMAP
D8
70
00
F0
D8
D8
D8
ENDCHAR
STARTCHAR napostrophe
ENCODING 329
SWIDTH 1125 0
DWIDTH 9 0
BBX 8 5 0 0
BITMAP
60
DE
1B
1B
1B
ENDCHAR
STARTCHAR Eng
ENCODING 330
SWIDTH 875 0
DWIDTH 7 0
BBX 6 6 0 -1
BITMAP
CC
EC
FC
DC
CC
18
ENDCHAR
STARTCHAR eng
ENCODING 331
SWIDTH 750 0
DWIDTH 6 0
BBX 5 5 0 -1
BITMAP
F0
D8
D8
D8
30
ENDCHAR
STARTCHAR Omacron
ENCODING 332
SWIDTH 875 0
DWIDTH 7 0
BBX 6 7 0 0
BITMAP
78
00
78
CC
CC
CC
78
ENDCHAR
STARTCHAR omacron
ENCODING 333
SWIDTH 750 0
DWIDTH 6 0
BBX 5 6 0 0
BITMAP
F8
00
70
D8
D8
70
ENDCHAR
STARTCHAR Obreve
ENCODING 334
SWIDTH 875 0
DWIDTH 7 0
BBX 6 8 0 0
BITMAP
CC
78
00
78
CC
CC
CC
78
ENDCHAR
STARTCHAR obreve
ENCODING 335
SWIDTH 750 0
DWIDTH 6 0
BBX 5 7 0 0
BITMAP
D8
70
00
70
D8
D8
70
ENDCHAR
STARTCHAR Odblacute
ENCODING 336
SWIDTH 875 0
DWIDTH 7 0
BBX 6 8 0 0
BITMAP
6C
D8
00
78
CC
CC
CC
78
ENDCHAR
STARTCHAR odblacute
ENCODING 337
SWIDTH 750 0
DWIDTH 6 0
BBX 6 7 0 0
BITMAP
6C
D8
00
70
D8
D8
70
ENDCHAR
STARTCHAR OE
ENCODING 338
SWIDTH 1375 0
DWIDTH 11 0
BBX 10 5 0 0
BITMAP
7FC0
CC00
CF80
CC00
7FC0
ENDCHAR
STARTCHAR oe
ENCODING 339
SWIDTH 1250 0
DWIDTH 10 0
BBX 9 4 0 0
BITMAP
7780
DD80
DF00
7780
ENDCHAR
STARTCHAR Racute
ENCODING 340
SWIDTH 875 0
DWIDTH 7 0
BBX 6 8 0 0
BITMAP
18
30
00
F8
CC
F8
D8
CC
ENDCHAR
STARTCHAR racute
ENCODING 341
SWIDTH 625 0
DWIDTH 5 0
BBX 4 7 0 0
BITMAP
30
60
00
D0
E0
C0
C0
ENDCHAR
STARTCHAR Rcedilla
ENCODING 342
SWIDTH 875 0
DWIDTH 7 0
BBX 6 7 0 -2
BITMAP
F8
CC
F8
D8
CC
30
60
ENDCHAR
STARTCHAR rcedilla
ENCODING 343
SWIDTH 625 0
DWIDTH 5 0
BBX 4 6 0 -2
BITMAP
D0
E0
C0
C0
60
C0
ENDCHAR
STARTCHAR Rcaron
ENCODING 344
SWIDTH 875 0
DWIDTH 7 0
BBX 6 8 0 0
BITMAP
CC
78
00
F8
CC
F8
D8
CC
ENDCHAR
STARTCHAR rcaron
ENCODING 345
SWIDTH 625 0
DWIDTH 5 0
BBX 5 7 0 0
BITMAP
D8
70
00
D0
E0
C0
C0
ENDCHAR
STARTCHAR Sacute
ENCODING 346
SWIDTH 875 0
DWIDTH 7 0
BBX 6 8 0 0
BITMAP
18
30
00
7C
E0
78
1C
F8
ENDCHAR
STARTCHAR sacute
ENCODING 347
SWIDTH 750 0
DWIDTH 6 0
BBX 5 7 0 0
BITMAP
30
60
00
78
E0
38
F0
ENDCHAR
STARTCHAR Scircumflex
ENCODING 348
SWIDTH 875 0
DWIDTH 7 0
BBX 6 8 0 0
BITMAP
78
CC
00
7C
E0
78
1C
F8
ENDCHAR
STARTCHAR scircumflex
ENCODING 349
SWIDTH 750 0
DWIDTH 6 0
BBX 5 7 0 0
BITMAP
70
D8
00
78
E0
38
F0
ENDCHAR
STARTCHAR Scedilla
ENCODING 350
SWIDTH 875 0
DWIDTH 7 0
BBX 6 7 0 -2
BITMAP
7C
E0
78
1C
F8
30
60
ENDCHAR
STARTCHAR scedilla
ENCODING 351
SWIDTH 750 0
DWIDTH 6 0
BBX 5 6 0 -2
BITMAP
78
E0
38
F0
30
60
ENDCHAR
STARTCHAR Scaron
ENCODING 352
SWIDTH 875 0
DWIDTH 7 0
BBX 6 8 0 0
BITMAP
CC
78
00
7C
E0
78
1C
F8
ENDCHAR
STARTCHAR scaron
ENCODING 353
SWIDTH 750 0
DWIDTH 6 0
BBX 5 7 0 0
BITMAP
D8
70
00
78
E0
38
F0
ENDCHAR
STARTCHAR Tcedilla
ENCODING 354
SWIDTH 875 0
DWIDTH 7 0
BBX 6 7 0 -2
BITMAP
FC
30
30
30
30
18
30
ENDCHAR
STARTCHAR tcedilla
ENCODING 355
SWIDTH 625 0
DWIDTH 5 0
BBX 4 7 0 -2
BITMAP
60
F0
60
60
60
30
60
ENDCHAR
STARTCHAR Tcaron
ENCODING 356
SWIDTH 875 0
DWIDTH 7 0
BBX 6 8 0 0
BITMAP
CC
78
00
FC
30
30
30
30
ENDCHAR
STARTCHAR tcaron
ENCODING 357
SWIDTH 625 0
DWIDTH 5 0
BBX 6 7 -1 0
BITMAP
78
CC
30
78
30
30
30
ENDCHAR
STARTCHAR Tbar
ENCODING 358
SWIDTH 875 0
DWIDTH 7 0
BBX 6 5 0 0
BITMAP
FC
30
78
30
30
ENDCHAR
STARTCHAR tbar
ENCODING 359
SWIDTH 625 0
DWIDTH 5 0
BBX 4 5 0 0
BITMAP
60
F0
60
F0
60
ENDCHAR
STARTCHAR Utilde
ENCODING 360
SWIDTH 875 0
DWIDTH 7 0
BBX 6 8 0 0
BITMAP
6C
D8
00
CC
CC
CC
CC
78
ENDCHAR
STARTCHAR utilde
ENCODING 361
SWIDTH 750 0
DWIDTH 6 0
BBX 6 7 0 0
BITMAP
6C
D8
00
D8
D8
D8
78
ENDCHAR
STARTCHAR Umacron
ENCODING 362
SWIDTH 875 0
DWIDTH 7 0
BBX 6 7 0 0
BITMAP
78
00
CC
CC
CC
CC
78
ENDCHAR
STARTCHAR umacron
ENCODING 363
SWIDTH 750 0
DWIDTH 6 0
BBX 5 6 0 0
BITMAP
F8
00
D8
D8
D8
78
ENDCHAR
STARTCHAR Ubreve
ENCODING 364
SWIDTH 875 0
DWIDTH 7 0
BBX 6 8 0 0
BITMAP
CC
78
00
CC
CC
CC
CC
78
ENDCHAR
STARTCHAR ubreve
ENCODING 365
SWIDTH 750 0
DWIDTH 6 0
BBX 5 7 0 0
BITMAP
D8
70
00
D8
D8
D8
78
ENDCHAR
STARTCHAR Uring
ENCODING 366
SWIDTH 875 0
DWIDTH 7 0
BBX 6 8 0 0
BITMAP
78
CC
78
CC
CC
CC
CC
78
ENDCHAR
STARTCHAR uring
ENCODING 367
SWIDTH 750 0
DWIDTH 6 0
BBX 5 7 0 0
BITMAP
70
D8
70
D8
D8
D8
78
ENDCHAR
STARTCHAR Udblacute
ENCODING 368
SWIDTH 875 0
DWIDTH 7 0
BBX 6 8 0 0
BITMAP
18
30
00
CC
CC
CC
CC
78
ENDCHAR
STARTCHAR udblacute
ENCODING 369
SWIDTH 750 0
DWIDTH 6 0
BBX 5 7 0 0
BITMAP
30
60
00
D8
D8
D8
78
ENDCHAR
STARTCHAR Uogonek
ENCODING 370
SWIDTH 875 0
DWIDTH 7 0
BBX 6 7 0 -2
BITMAP
CC
CC
CC
CC
78
30
18
ENDCHAR
STARTCHAR uogonek
ENCODING 371
SWIDTH 750 0
DWIDTH 6 0
BBX 5 6 0 -2
BITMAP
D8
D8
D8
78
30
18
ENDCHAR
STARTCHAR Wcircumflex
ENCODING 372
SWIDTH 1125 0
DWIDTH 9 0
BBX 8 8 0 0
BITMAP
3C
66
00
DB
DB
DB
DB
7E
ENDCHAR
STARTCHAR wcircumflex
ENCODING 373
SWIDTH 1125 0
DWIDTH 9 0
BBX 8 7 0 0
BITMAP
3C
66
00
DB
DB
DB
7E
ENDCHAR
STARTCHAR Ycircumflex
ENCODING 374
SWIDTH 875 0
DWIDTH 7 0
BBX 6 8 0 0
BITMAP
78
CC
00
CC
CC
78
30
30
ENDCHAR
STARTCHAR ycircumflex
ENCODING 375
SWIDTH 750 0
DWIDTH 6 0
BBX 5 9 0 -2
BITMAP
70
D8
00
D8
D8
D8
78
18
70
ENDCHAR
STARTCHAR Ydieresis
ENCODING 376
SWIDTH 875 0
DWIDTH 7 0
BBX 6 8 0 0
BITMAP
CC
CC
00
CC
CC
78
30
30
ENDCHAR
STARTCHAR Zacute
ENCODING 377
SWIDTH 875 0
DWIDTH 7 0
BBX 6 8 0 0
BITMAP
18
30
00
FC
18
30
60
FC
ENDCHAR
STARTCHAR zacute
ENCODING 378
SWIDTH 750 0
DWIDTH 6 0
BBX 5 7 0 0
BITMAP
30
60
00
F8
30
60
F8
ENDCHAR
STARTCHAR Zdot
ENCODING 379
SWIDTH 875 0
DWIDTH 7 0
BBX 6 7 0 0
BITMAP
30
00
FC
18
30
60
FC
ENDCHAR
STARTCHAR zdot
ENCODING 380
SWIDTH 750 0
DWIDTH 6 0
BBX 5 6 0 0
BITMAP
30
00
F8
30
60
F8
ENDCHAR
STARTCHAR Zcaron
ENCODING 381
SWIDTH 875 0
DWIDTH 7 0
BBX 6 8 0 0
BITMAP
CC
78
00
FC
18
30
60
FC
ENDCHAR
STARTCHAR zcaron
ENCODING 382
SWIDTH 750 0
DWIDTH 6 0
BBX 5 7 0 0
BITMAP
D8
70
00
F8
30
60
F8
ENDCHAR
STARTCHAR slong
ENCODING 383
SWIDTH 500 0
DWIDTH 4 0
BBX 3 5 0 0
BITMAP
60
C0
C0
C0
C0
ENDCHAR
STARTCHAR bbar
ENCODING 384
SWIDTH 750 0
DWIDTH 6 0
BBX 5 6 0 0
BITMAP
D0
60
F0
D8
D8
F0
ENDCHAR
STARTCHAR Bhook
ENCODING 385
SWIDTH 1000 0
DWIDTH 8 0
BBX 7 5 0 0
BITMAP
FC
66
7C
66
7C
ENDCHAR
STARTCHAR Btopbar
ENCODING 386
SWIDTH 875 0
DWIDTH 7 0
BBX 6 5 0 0
BITMAP
F8
C0
F8
CC
F8
ENDCHAR
STARTCHAR btopbar
ENCODING 387
SWIDTH 750 0
DWIDTH 6 0
BBX 5 5 0 0
BITMAP
F8
C0
F0
D8
F0
ENDCHAR
STARTCHAR Tonesix
ENCODING 388
SWIDTH 1000 0
DWIDTH 8 0
BBX 7 5 0 0
BITMAP
60
E0
7C
66
7C
ENDCHAR
STARTCHAR tonesix
ENCODING 389
SWIDTH 750 0
DWIDTH 6 0
BBX 6 5 0 0
BITMAP
60
E0
78
6C
78
ENDCHAR
STARTCHAR Oopen
ENCODING 390
SWIDTH 875 0
DWIDTH 7 0
BBX 6 5 0 0
BITMAP
78
CC
0C
CC
78
ENDCHAR
STARTCHAR Chook
ENCODING 391
SWIDTH 875 0
DWIDTH 7 0
BBX 7 5 0 0
BITMAP
7A
CC
C0
CC
78
ENDCHAR
STARTCHAR chook
ENCODING 392
SWIDTH 750 0
DWIDTH 6 0
BBX 6 5 0 0
BITMAP
04
78
C0
C0
78
ENDCHAR
STARTCHAR Dbar
ENCODING 393
SWIDTH 1000 0
DWIDTH 8 0
BBX 7 5 0 0
BITMAP
7C
66
F6
66
7C
ENDCHAR
STARTCHAR Dhook
ENCODING 394
SWIDTH 1000 0
DWIDTH 8 0
BBX 7 5 0 0
BITMAP
FC
66
66
66
7C
ENDCHAR
STARTCHAR Dtopbar
ENCODING 395
SWIDTH 875 0
DWIDTH 7 0
BBX 6 5 0 0
BITMAP
7C
0C
7C
CC
7C
ENDCHAR
STARTCHAR dtopbar
ENCODING 396
SWIDTH 750 0
DWIDTH 6 0
BBX 5 5 0 0
BITMAP
F8
18
78
D8
78
ENDCHAR
STARTCHAR deltaturn
ENCODING 397
SWIDTH 750 0
DWIDTH 6 0
BBX 5 6 0 -2
BITMAP
70
D8
D8
70
18
70
ENDCHAR
STARTCHAR Eturn
ENCODING 398
SWIDTH 750 0
DWIDTH 6 0
BBX 5 5 0 0
BITMAP
F8
18
78
18
F8
ENDCHAR
STARTCHAR Schwa
ENCODING 399
SWIDTH 750 0
DWIDTH 6 0
BBX 5 4 0 0
BITMAP
F0
D8
78
F0
ENDCHAR
STARTCHAR Epsilonlatin
ENCODING 400
SWIDTH 875 0
DWIDTH 7 0
BBX 6 5 0 0
BITMAP
78
CC
60
CC
78
ENDCHAR
STARTCHAR Fhook
ENCODING 401
SWIDTH 875 0
DWIDTH 7 0
BBX 6 6 0 -1
BITMAP
7C
60
78
60
60
C0
ENDCHAR
STARTCHAR florin
ENCODING 402
SWIDTH 625 0
DWIDTH 5 0
BBX 4 6 0 -1
BITMAP
30
60
70
60
60
C0
ENDCHAR
STARTCHAR Ghook
ENCODING 403
SWIDTH 875 0
DWIDTH 7 0
BBX 7 6 0 0
BITMAP
02
7C
C0
DC
CC
7C
ENDCHAR
STARTCHAR Gammalatin
ENCODING 404
SWIDTH 875 0
DWIDTH 7 0
BBX 6 5 0 0
BITMAP
CC
CC
78
30
30
ENDCHAR
STARTCHAR hv
ENCODING 405
SWIDTH 1125 0
DWIDTH 9 0
BBX 8 5 0 0
BITMAP
C0
F3
DB
DB
CE
ENDCHAR
STARTCHAR Iotalatin
ENCODING 406
SWIDTH 500 0
DWIDTH 4 0
BBX 3 5 0 0
BITMAP
C0
C0
C0
C0
60
ENDCHAR
STARTCHAR Ibar
ENCODING 407
SWIDTH 625 0
DWIDTH 5 0
BBX 4 5 0 0
BITMAP
60
60
F0
60
60
ENDCHAR
STARTCHAR Khook
ENCODING 408
SWIDTH 875 0
DWIDTH 7 0
BBX 6 5 0 0
BITMAP
D8
F4
F0
D8
CC
ENDCHAR
STARTCHAR khook
ENCODING 409
SWIDTH 750 0
DWIDTH 6 0
BBX 5 5 0 0
BITMAP
60
D8
F0
D8
D8
ENDCHAR
STARTCHAR lbar
ENCODING 410
SWIDTH 625 0
DWIDTH 5 0
BBX 4 5 0 0
BITMAP
60
60
F0
60
60
ENDCHAR
STARTCHAR lambdabar
ENCODING 411
SWIDTH 875 0
DWIDTH 7 0
BBX 6 5 0 -1
BITMAP
EC
38
7C
CC
CC
ENDCHAR
STARTCHAR mcapturn
ENCODING 412
SWIDTH 1125 0
DWIDTH 9 0
BBX 8 4 0 0
BITMAP
DB
DB
DB
7F
ENDCHAR
STARTCHAR Nhook
ENCODING 413
SWIDTH 1000 0
DWIDTH 8 0
BBX 7 6 0 -1
BITMAP
66
76
7E
6E
66
C0
ENDCHAR
STARTCHAR nleg
ENCODING 414
SWIDTH 750 0
DWIDTH 6 0
BBX 5 5 0 -1
BITMAP
F0
D8
D8
D8
18
ENDCHAR
STARTCHAR Obar
ENCODING 415
SWIDTH 875 0
DWIDTH 7 0
BBX 6 5 0 0
BITMAP
78
CC
FC
CC
78
ENDCHAR
STARTCHAR Ohorn
ENCODING 416
SWIDTH 875 0
DWIDTH 7 0
BBX 7 5 0 0
BITMAP
7A
CC
CC
CC
78
ENDCHAR
STARTCHAR ohorn
ENCODING 417
SWIDTH 750 0
DWIDTH 6 0
BBX 5 5 0 0
BITMAP
08
70
D8
D8
70
ENDCHAR
STARTCHAR OI
ENCODING 418
SWIDTH 1125 0
DWIDTH 9 0
BBX 8 5 0 0
BITMAP
7F
DB
DB
73
03
ENDCHAR
STARTCHAR oi
ENCODING 419
SWIDTH 1125 0
DWIDTH 9 0
BBX 8 5 0 -1
BITMAP
7F
DB
DB
73
03
ENDCHAR
STARTCHAR Phook
ENCODING 420
SWIDTH 1000 0
DWIDTH 8 0
BBX 7 5 0 0
BITMAP
FC
66
7C
60
60
ENDCHAR
STARTCHAR phook
ENCODING 421
SWIDTH 750 0
DWIDTH 6 0
BBX 5 6 0 -1
BITMAP
60
C0
F0
D8
F0
C0
ENDCHAR
STARTCHAR YR
ENCODING 422
SWIDTH 875 0
DWIDTH 7 0
BBX 6 6 0 0
BITMAP
C0
F8
CC
F8
D8
CC
ENDCHAR
STARTCHAR Tonetwo
ENCODING 423
SWIDTH 875 0
DWIDTH 7 0
BBX 6 5 0 0
BITMAP
F8
1C
78
E0
7C
ENDCHAR
STARTCHAR tonetwo
ENCODING 424
SWIDTH 750 0
DWIDTH 6 0
BBX 5 4 0 0
BITMAP
F0
38
E0
78
ENDCHAR
STARTCHAR Esh
ENCODING 425
SWIDTH 875 0
DWIDTH 7 0
BBX 6 5 0 0
BITMAP
FC
6C
30
6C
FC
ENDCHAR
STARTCHAR eshlooprev
ENCODING 426
SWIDTH 625 0
DWIDTH 5 0
BBX 4 6 0 -1
BITMAP
C0
60
60
60
60
30
ENDCHAR
STARTCHAR tpalatalhook
ENCODING 427
SWIDTH 625 0
DWIDTH 5 0
BBX 4 7 0 -2
BITMAP
60
F0
60
60
60
30
60
ENDCHAR
STARTCHAR Thook
ENCODING 428
SWIDTH 875 0
DWIDTH 7 0
BBX 6 5 0 0
BITMAP
7C
D8
18
18
18
ENDCHAR
STARTCHAR thook
ENCODING 429
SWIDTH 500 0
DWIDTH 4 0
BBX 3 5 0 0
BITMAP
60
C0
E0
C0
60
ENDCHAR
STARTCHAR Trthook
ENCODING 430
SWIDTH 875 0
DWIDTH 7 0
BBX 6 6 0 -1
BITMAP
FC
30
30
30
30
18
ENDCHAR
STARTCHAR Uhorn
ENCODING 431
SWIDTH 875 0
DWIDTH 7 0
BBX 7 6 0 0
BITMAP
02
CC
CC
CC
CC
78
ENDCHAR
STARTCHAR uhorn
ENCODING 432
SWIDTH 750 0
DWIDTH 6 0
BBX 6 5 0 0
BITMAP
04
D8
D8
D8
78
ENDCHAR
STARTCHAR Upsilonlatin
ENCODING 433
SWIDTH 1000 0
DWIDTH 8 0
BBX 7 5 0 0
BITMAP
6C
C6
C6
C6
7C
ENDCHAR
STARTCHAR Vcursive
ENCODING 434
SWIDTH 875 0
DWIDTH 7 0
BBX 6 5 0 0
BITMAP
D8
CC
CC
CC
78
ENDCHAR
STARTCHAR Yhook
ENCODING 435
SWIDTH 1125 0
DWIDTH 9 0
BBX 8 5 0 0
BITMAP
33
73
DE
0C
0C
ENDCHAR
STARTCHAR yhook
ENCODING 436
SWIDTH 750 0
DWIDTH 6 0
BBX 6 7 0 -2
BITMAP
04
D8
D8
D8
78
18
70
ENDCHAR
STARTCHAR Zbar
ENCODING 437
SWIDTH 875 0
DWIDTH 7 0
BBX 6 5 0 0
BITMAP
FC
18
FC
60
FC
ENDCHAR
STARTCHAR zbar
ENCODING 438
SWIDTH 750 0
DWIDTH 6 0
BBX 5 4 0 0
BITMAP
F8
30
70
F8
ENDCHAR
STARTCHAR Yogh
ENCODING 439
SWIDTH 750 0
DWIDTH 6 0
BBX 5 5 0 0
BITMAP
F8
30
70
18
F0
ENDCHAR
STARTCHAR Yoghrev
ENCODING 440
SWIDTH 750 0
DWIDTH 6 0
BBX 5 5 0 0
BITMAP
F8
60
70
C0
78
ENDCHAR
STARTCHAR yoghrev
ENCODING 441
SWIDTH 750 0
DWIDTH 6 0
BBX 5 5 0 -1
BITMAP
F8
60
70
C0
78
ENDCHAR
STARTCHAR yoghtail
ENCODING 442
SWIDTH 750 0
DWIDTH 6 0
BBX 5 5 0 -1
BITMAP
F8
30
78
C0
70
ENDCHAR
STARTCHAR twobar
ENCODING 443
SWIDTH 875 0
DWIDTH 7 0
BBX 6 5 0 0
BITMAP
F8
0C
FC
60
FC
ENDCHAR
STARTCHAR Tonefive
ENCODING 444
SWIDTH 875 0
DWIDTH 7 0
BBX 6 5 0 0
BITMAP
FC
C0
78
0C
F8
ENDCHAR
STARTCHAR tonefive
ENCODING 445
SWIDTH 750 0
DWIDTH 6 0
BBX 5 5 0 -1
BITMAP
F8
C0
70
18
F0
ENDCHAR
STARTCHAR glottalstopbarinv
ENCODING 446
SWIDTH 625 0
DWIDTH 5 0
BBX 4 5 0 0
BITMAP
60
F0
60
30
E0
ENDCHAR
STARTCHAR wynn
ENCODING 447
SWIDTH 875 0
DWIDTH 7 0
BBX 6 6 0 -2
BITMAP
F8
CC
CC
CC
D8
F0
ENDCHAR
STARTCHAR pipe
ENCODING 448
SWIDTH 375 0
DWIDTH 3 0
BBX 2 5 0 0
BITMAP
C0
C0
C0
C0
C0
ENDCHAR
STARTCHAR pipedbl
ENCODING 449
SWIDTH 750 0
DWIDTH 6 0
BBX 5 5 0 0
BITMAP
D8
D8
D8
D8
D8
ENDCHAR
STARTCHAR pipedblbar
ENCODING 450
SWIDTH 625 0
DWIDTH 5 0
BBX 4 5 0 0
BITMAP
60
F0
60
F0
60
ENDCHAR
STARTCHAR exclamlatin
ENCODING 451
SWIDTH 500 0
DWIDTH 4 0
BBX 2 5 1 0
BITMAP
C0
C0
C0
00
C0
ENDCHAR
STARTCHAR DZhacek
ENCODING 452
SWIDTH 1750 0
DWIDTH 14 0
BBX 13 8 0 0
BITMAP
0198
00F0
0000
F9F8
CC30
CC60
CCC0
F9F8
ENDCHAR
STARTCHAR Dzhacek
ENCODING 453
SWIDTH 1625 0
DWIDTH 13 0
BBX 12 7 0 0
BITMAP
01B0
00E0
F800
CDF0
CC60
CCC0
F9F0
ENDCHAR
STARTCHAR dzhacek
ENCODING 454
SWIDTH 1500 0
DWIDTH 12 0
BBX 11 7 0 0
BITMAP
0360
01C0
1800
7BE0
D8C0
D980
7BE0
ENDCHAR
STARTCHAR LJ
ENCODING 455
SWIDTH 1250 0
DWIDTH 10 0
BBX 9 5 0 0
BITMAP
C180
C180
C180
CD80
F700
ENDCHAR
STARTCHAR Lj
ENCODING 456
SWIDTH 1000 0
DWIDTH 8 0
BBX 7 7 0 -2
BITMAP
C6
C0
C6
C6
FE
06
0C
ENDCHAR
STARTCHAR lj
ENCODING 457
SWIDTH 750 0
DWIDTH 6 0
BBX 5 7 0 -2
BITMAP
D8
C0
D8
D8
D8
18
30
ENDCHAR
STARTCHAR NJ
ENCODING 458
SWIDTH 1625 0
DWIDTH 13 0
BBX 12 5 0 0
BITMAP
CC30
EC30
FC30
DDB0
CCE0
ENDCHAR
STARTCHAR Nj
ENCODING 459
SWIDTH 1250 0
DWIDTH 10 0
BBX 9 7 0 -2
BITMAP
CD80
EC00
FD80
DD80
CD80
0180
0300
ENDCHAR
STARTCHAR nj
ENCODING 460
SWIDTH 1125 0
DWIDTH 9 0
BBX 8 7 0 -2
BITMAP
03
F0
DB
DB
DB
03
06
ENDCHAR
STARTCHAR Ahacek
ENCODING 461
SWIDTH 875 0
DWIDTH 7 0
BBX 6 8 0 0
BITMAP
CC
78
00
78
CC
FC
CC
CC
ENDCHAR
STARTCHAR ahacek
ENCODING 462
SWIDTH 750 0
DWIDTH 6 0
BBX 5 7 0 0
BITMAP
D8
70
00
70
D8
D8
78
ENDCHAR
STARTCHAR Ihacek
ENCODING 463
SWIDTH 375 0
DWIDTH 3 0
BBX 6 8 -2 0
BITMAP
CC
78
00
30
30
30
30
30
ENDCHAR
STARTCHAR ihacek
ENCODING 464
SWIDTH 625 0
DWIDTH 5 0
BBX 6 6 -2 0
BITMAP
CC
78
00
30
30
30
ENDCHAR
STARTCHAR Ohacek
ENCODING 465
SWIDTH 875 0
DWIDTH 7 0
BBX 6 8 0 0
BITMAP
CC
78
00
78
CC
CC
CC
78
ENDCHAR
STARTCHAR ohacek
ENCODING 466
SWIDTH 750 0
DWIDTH 6 0
BBX 5 7 0 0
BITMAP
D8
70
00
70
D8
D8
70
ENDCHAR
STARTCHAR Uhacek
ENCODING 467
SWIDTH 875 0
DWIDTH 7 0
BBX 6 8 0 0
BITMAP
CC
78
00
CC
CC
CC
CC
78
ENDCHAR
STARTCHAR uhacek
ENCODING 468
SWIDTH 750 0
DWIDTH 6 0
BBX 5 7 0 0
BITMAP
D8
70
00
D8
D8
D8
78
ENDCHAR
STARTCHAR Udieresismacron
ENCODING 469
SWIDTH 875 0
DWIDTH 7 0
BBX 6 8 0 0
BITMAP
FC
CC
00
CC
CC
CC
CC
78
ENDCHAR
STARTCHAR udieresismacron
ENCODING 470
SWIDTH 750 0
DWIDTH 6 0
BBX 5 7 0 0
BITMAP
F8
D8
00
D8
D8
D8
78
ENDCHAR
STARTCHAR Udieresisacute
ENCODING 471
SWIDTH 875 0
DWIDTH 7 0
BBX 6 9 0 0
BITMAP
30
60
CC
00
CC
CC
CC
CC
78
ENDCHAR
STARTCHAR udieresisacute
ENCODING 472
SWIDTH 750 0
DWIDTH 6 0
BBX 5 8 0 0
BITMAP
30
60
D8
00
D8
D8
D8
78
ENDCHAR
STARTCHAR Udieresishacek
ENCODING 473
SWIDTH 875 0
DWIDTH 7 0
BBX 6 10 0 0
BITMAP
CC
78
78
CC
00
CC
CC
CC
CC
78
ENDCHAR
STARTCHAR udieresishacek
ENCODING 474
SWIDTH 750 0
DWIDTH 6 0
BBX 5 9 0 0
BITMAP
D8
70
70
D8
00
D8
D8
D8
78
ENDCHAR
STARTCHAR Udieresisgrave
ENCODING 475
SWIDTH 875 0
DWIDTH 7 0
BBX 6 9 0 0
BITMAP
30
18
CC
00
CC
CC
CC
CC
78
ENDCHAR
STARTCHAR udieresisgrave
ENCODING 476
SWIDTH 750 0
DWIDTH 6 0
BBX 5 8 0 0
BITMAP
60
30
D8
00
D8
D8
D8
78
ENDCHAR
STARTCHAR eturn
ENCODING 477
SWIDTH 750 0
DWIDTH 6 0
BBX 5 4 0 0
BITMAP
F0
78
D8
F0
ENDCHAR
STARTCHAR Adieresismacron
ENCODING 478
SWIDTH 875 0
DWIDTH 7 0
BBX 6 8 0 0
BITMAP
FC
CC
00
78
CC
FC
CC
CC
ENDCHAR
STARTCHAR adieresismacron
ENCODING 479
SWIDTH 750 0
DWIDTH 6 0
BBX 5 7 0 0
BITMAP
F8
D8
00
70
D8
D8
78
ENDCHAR
STARTCHAR Adotmacron
ENCODING 480
SWIDTH 750 0
DWIDTH 6 0
BBX 6 9 0 0
BITMAP
78
00
30
00
78
CC
FC
CC
CC
ENDCHAR
STARTCHAR adotmacron
ENCODING 481
SWIDTH 750 0
DWIDTH 6 0
BBX 5 8 0 0
BITMAP
78
00
30
00
70
D8
D8
78
ENDCHAR
STARTCHAR AEmacron
ENCODING 482
SWIDTH 1375 0
DWIDTH 11 0
BBX 10 7 0 0
BITMAP
1E00
0000
7FC0
CC00
FF80
CC00
CFC0
ENDCHAR
STARTCHAR aemacron
ENCODING 483
SWIDTH 1250 0
DWIDTH 10 0
BBX 9 6 0 0
BITMAP
3E00
0000
7780
DD80
DF00
7F80
ENDCHAR
STARTCHAR Gbar
ENCODING 484
SWIDTH 875 0
DWIDTH 7 0
BBX 6 5 0 0
BITMAP
60
CC
DC
CC
7C
ENDCHAR
STARTCHAR gbar
ENCODING 485
SWIDTH 750 0
DWIDTH 6 0
BBX 5 6 0 -2
BITMAP
70
D8
D8
78
18
78
ENDCHAR
STARTCHAR Ghacek
ENCODING 486
SWIDTH 875 0
DWIDTH 7 0
BBX 6 8 0 0
BITMAP
CC
78
00
7C
C0
DC
CC
7C
ENDCHAR
STARTCHAR ghacek
ENCODING 487
SWIDTH 750 0
DWIDTH 6 0
BBX 5 9 0 -2
BITMAP
D8
70
00
70
D8
D8
78
18
70
ENDCHAR
STARTCHAR Khacek
ENCODING 488
SWIDTH 875 0
DWIDTH 7 0
BBX 6 8 0 0
BITMAP
CC
78
00
CC
D8
F0
D8
CC
ENDCHAR
STARTCHAR khacek
ENCODING 489
SWIDTH 750 0
DWIDTH 6 0
BBX 5 7 0 0
BITMAP
D8
70
C0
D8
F0
D8
D8
ENDCHAR
STARTCHAR Oogonek
ENCODING 490
SWIDTH 875 0
DWIDTH 7 0
BBX 6 7 0 -2
BITMAP
78
CC
CC
CC
78
30
18
ENDCHAR
STARTCHAR oogonek
ENCODING 491
SWIDTH 750 0
DWIDTH 6 0
BBX 5 6 0 -2
BITMAP
70
D8
D8
70
60
30
ENDCHAR
STARTCHAR Oogonekmacron
ENCODING 492
SWIDTH 875 0
DWIDTH 7 0
BBX 6 9 0 -2
BITMAP
78
00
78
CC
CC
CC
78
30
18
ENDCHAR
STARTCHAR oogonekmacron
ENCODING 493
SWIDTH 750 0
DWIDTH 6 0
BBX 5 8 0 -2
BITMAP
F8
00
70
D8
D8
70
60
30
ENDCHAR
STARTCHAR Yoghhacek
ENCODING 494
SWIDTH 750 0
DWIDTH 6 0
BBX 6 8 0 0
BITMAP
CC
78
00
F8
30
70
18
F0
ENDCHAR
STARTCHAR yoghhacek
ENCODING 495
SWIDTH 750 0
DWIDTH 6 0
BBX 5 8 0 -1
BITMAP
D8
70
00
F8
30
70
18
F0
ENDCHAR
STARTCHAR jhacek
ENCODING 496
SWIDTH 500 0
DWIDTH 4 0
BBX 6 8 -1 -2
BITMAP
CC
78
00
30
30
30
30
60
ENDCHAR
STARTCHAR uni01F1
ENCODING 497
SWIDTH 1750 0
DWIDTH 14 0
BBX 13 5 0 0
BITMAP
F9F8
CC30
CC60
CCC0
F9F8
ENDCHAR
STARTCHAR uni01F2
ENCODING 498
SWIDTH 1625 0
DWIDTH 13 0
BBX 12 5 0 0
BITMAP
F800
CDF0
CC60
CCC0
F9F0
ENDCHAR
STARTCHAR uni01F3
ENCODING 499
SWIDTH 1500 0
DWIDTH 12 0
BBX 11 5 0 0
BITMAP
1800
7BE0
D8C0
D980
7BE0
ENDCHAR
STARTCHAR uni01F4
ENCODING 500
SWIDTH 875 0
DWIDTH 7 0
BBX 6 8 0 0
BITMAP
18
30
00
7C
C0
DC
CC
7C
ENDCHAR
STARTCHAR uni01F5
ENCODING 501
SWIDTH 750 0
DWIDTH 6 0
BBX 5 9 0 -2
BITMAP
18
30
00
70
D8
D8
78
18
70
ENDCHAR
STARTCHAR uni01F6
ENCODING 502
SWIDTH 1250 0
DWIDTH 10 0
BBX 9 5 0 0
BITMAP
CC00
CD80
FD80
CD80
C700
ENDCHAR
STARTCHAR uni01F7
ENCODING 503
SWIDTH 875 0
DWIDTH 7 0
BBX 6 6 0 -2
BITMAP
F8
CC
CC
CC
D8
F0
ENDCHAR
STARTCHAR uni01F8
ENCODING 504
SWIDTH 875 0
DWIDTH 7 0
BBX 6 8 0 0
BITMAP
60
30
00
CC
EC
FC
DC
CC
ENDCHAR
STARTCHAR uni01F9
ENCODING 505
SWIDTH 750 0
DWIDTH 6 0
BBX 5 7 0 0
BITMAP
C0
60
00
F0
D8
D8
D8
ENDCHAR
STARTCHAR Aringacute
ENCODING 506
SWIDTH 875 0
DWIDTH 7 0
BBX 6 9 0 0
BITMAP
04
78
CC
78
78
CC
FC
CC
CC
ENDCHAR
STARTCHAR aringacute
ENCODING 507
SWIDTH 750 0
DWIDTH 6 0
BBX 5 8 0 0
BITMAP
08
70
D8
70
70
D8
D8
78
ENDCHAR
STARTCHAR AEacute
ENCODING 508
SWIDTH 1375 0
DWIDTH 11 0
BBX 10 8 0 0
BITMAP
0600
0C00
0000
7FC0
CC00
FF80
CC00
CFC0
ENDCHAR
STARTCHAR aeacute
ENCODING 509
SWIDTH 1250 0
DWIDTH 10 0
BBX 9 7 0 0
BITMAP
0600
0C00
0000
7780
DD80
DF00
7F80
ENDCHAR
STARTCHAR Oslashacute
ENCODING 510
SWIDTH 1000 0
DWIDTH 8 0
BBX 7 8 0 0
BITMAP
18
30
00
7C
CE
D6
E6
7C
ENDCHAR
STARTCHAR oslashacute
ENCODING 511
SWIDTH 875 0
DWIDTH 7 0
BBX 6 7 0 0
BITMAP
18
30
00
38
DC
EC
70
ENDCHAR
STARTCHAR circumflex
ENCODING 710
SWIDTH 750 0
DWIDTH 6 0
BBX 5 2 0 3
BITMAP
70
D8
ENDCHAR
STARTCHAR caron
ENCODING 711
SWIDTH 750 0
DWIDTH 6 0
BBX 5 2 0 3
BITMAP
D8
70
ENDCHAR
STARTCHAR macron.dup1
ENCODING 713
SWIDTH 500 0
DWIDTH 4 0
BBX 3 1 0 4
BITMAP
E0
ENDCHAR
STARTCHAR breve
ENCODING 728
SWIDTH 750 0
DWIDTH 6 0
BBX 5 2 0 3
BITMAP
D8
70
ENDCHAR
STARTCHAR dotaccent
ENCODING 729
SWIDTH 375 0
DWIDTH 3 0
BBX 2 1 0 2
BITMAP
C0
ENDCHAR
STARTCHAR ring
ENCODING 730
SWIDTH 750 0
DWIDTH 6 0
BBX 5 3 0 2
BITMAP
70
D8
70
ENDCHAR
STARTCHAR ogonek
ENCODING 731
SWIDTH 500 0
DWIDTH 4 0
BBX 3 3 0 -2
BITMAP
60
C0
60
ENDCHAR
STARTCHAR tilde
ENCODING 732
SWIDTH 875 0
DWIDTH 7 0
BBX 6 2 0 2
BITMAP
6C
D8
ENDCHAR
STARTCHAR hungarumlaut
ENCODING 733
SWIDTH 750 0
DWIDTH 6 0
BBX 5 2 0 2
BITMAP
D8
D8
ENDCHAR
STARTCHAR iotasub
ENCODING 890
SWIDTH 375 0
DWIDTH 3 0
BBX 2 2 0 -2
BITMAP
80
40
ENDCHAR
STARTCHAR tonos
ENCODING 900
SWIDTH 500 0
DWIDTH 4 0
BBX 3 2 0 3
BITMAP
60
C0
ENDCHAR
STARTCHAR diaeresistonos
ENCODING 901
SWIDTH 750 0
DWIDTH 6 0
BBX 5 3 0 3
BITMAP
30
60
D8
ENDCHAR
STARTCHAR Alphatonos
ENCODING 902
SWIDTH 1250 0
DWIDTH 10 0
BBX 9 5 0 0
BITMAP
6F00
D980
1F80
1980
1980
ENDCHAR
STARTCHAR anoteleia
ENCODING 903
SWIDTH 375 0
DWIDTH 3 0
BBX 2 1 0 2
BITMAP
C0
ENDCHAR
STARTCHAR Epsilontonos
ENCODING 904
SWIDTH 1125 0
DWIDTH 9 0
BBX 8 5 0 0
BITMAP
7F
D8
1E
18
1F
ENDCHAR
STARTCHAR Etatonos
ENCODING 905
SWIDTH 1250 0
DWIDTH 10 0
BBX 9 5 0 0
BITMAP
7980
D980
1F80
1980
1980
ENDCHAR
STARTCHAR Iotatonos
ENCODING 906
SWIDTH 750 0
DWIDTH 6 0
BBX 5 5 0 0
BITMAP
78
D8
18
18
18
ENDCHAR
STARTCHAR Omicrontonos
ENCODING 908
SWIDTH 1250 0
DWIDTH 10 0
BBX 9 5 0 0
BITMAP
6F00
D980
1980
1980
0F00
ENDCHAR
STARTCHAR Upsilontonos
ENCODING 910
SWIDTH 1250 0
DWIDTH 10 0
BBX 9 5 0 0
BITMAP
7980
D980
0F00
0600
0600
ENDCHAR
STARTCHAR Omegatonos
ENCODING 911
SWIDTH 1375 0
DWIDTH 11 0
BBX 10 5 0 0
BITMAP
6F80
D8C0
18C0
0D80
1DC0
ENDCHAR
STARTCHAR iotadiaeresistonos
ENCODING 912
SWIDTH 750 0
DWIDTH 6 0
BBX 5 6 0 0
BITMAP
18
70
D8
70
30
18
ENDCHAR
STARTCHAR Alpha
ENCODING 913
SWIDTH 875 0
DWIDTH 7 0
BBX 6 5 0 0
BITMAP
78
CC
FC
CC
CC
ENDCHAR
STARTCHAR Beta
ENCODING 914
SWIDTH 875 0
DWIDTH 7 0
BBX 6 5 0 0
BITMAP
F8
CC
F8
CC
F8
ENDCHAR
STARTCHAR Gamma
ENCODING 915
SWIDTH 750 0
DWIDTH 6 0
BBX 5 5 0 0
BITMAP
F8
C0
C0
C0
C0
ENDCHAR
STARTCHAR Delta
ENCODING 916
SWIDTH 1000 0
DWIDTH 8 0
BBX 7 5 0 0
BITMAP
38
6C
6C
C6
FE
ENDCHAR
STARTCHAR Epsilon
ENCODING 917
SWIDTH 750 0
DWIDTH 6 0
BBX 5 5 0 0
BITMAP
F8
C0
F0
C0
F8
ENDCHAR
STARTCHAR Zeta
ENCODING 918
SWIDTH 875 0
DWIDTH 7 0
BBX 6 5 0 0
BITMAP
FC
18
30
60
FC
ENDCHAR
STARTCHAR Eta
ENCODING 919
SWIDTH 875 0
DWIDTH 7 0
BBX 6 5 0 0
BITMAP
CC
CC
FC
CC
CC
ENDCHAR
STARTCHAR Theta
ENCODING 920
SWIDTH 875 0
DWIDTH 7 0
BBX 6 5 0 0
BITMAP
78
CC
FC
CC
78
ENDCHAR
STARTCHAR Iota
ENCODING 921
SWIDTH 375 0
DWIDTH 3 0
BBX 2 5 0 0
BITMAP
C0
C0
C0
C0
C0
ENDCHAR
STARTCHAR Kappa
ENCODING 922
SWIDTH 875 0
DWIDTH 7 0
BBX 6 5 0 0
BITMAP
CC
D8
F0
D8
CC
ENDCHAR
STARTCHAR Lambda
ENCODING 923
SWIDTH 1000 0
DWIDTH 8 0
BBX 7 5 0 0
BITMAP
38
6C
6C
C6
C6
ENDCHAR
STARTCHAR Mu
ENCODING 924
SWIDTH 1000 0
DWIDTH 8 0
BBX 7 5 0 0
BITMAP
C6
EE
FE
D6
C6
ENDCHAR
STARTCHAR Nu
ENCODING 925
SWIDTH 875 0
DWIDTH 7 0
BBX 6 5 0 0
BITMAP
CC
EC
FC
DC
CC
ENDCHAR
STARTCHAR Xi
ENCODING 926
SWIDTH 750 0
DWIDTH 6 0
BBX 5 5 0 0
BITMAP
F8
00
70
00
F8
ENDCHAR
STARTCHAR Omicron
ENCODING 927
SWIDTH 875 0
DWIDTH 7 0
BBX 6 5 0 0
BITMAP
78
CC
CC
CC
78
ENDCHAR
STARTCHAR Pi
ENCODING 928
SWIDTH 875 0
DWIDTH 7 0
BBX 6 5 0 0
BITMAP
FC
CC
CC
CC
CC
ENDCHAR
STARTCHAR Rho
ENCODING 929
SWIDTH 875 0
DWIDTH 7 0
BBX 6 5 0 0
BITMAP
F8
CC
F8
C0
C0
ENDCHAR
STARTCHAR Sigma
ENCODING 931
SWIDTH 875 0
DWIDTH 7 0
BBX 6 5 0 0
BITMAP
FC
6C
30
6C
FC
ENDCHAR
STARTCHAR Tau
ENCODING 932
SWIDTH 875 0
DWIDTH 7 0
BBX 6 5 0 0
BITMAP
FC
30
30
30
30
ENDCHAR
STARTCHAR Upsilon
ENCODING 933
SWIDTH 875 0
DWIDTH 7 0
BBX 6 5 0 0
BITMAP
CC
CC
78
30
30
ENDCHAR
STARTCHAR Phi
ENCODING 934
SWIDTH 1250 0
DWIDTH 10 0
BBX 9 7 0 -1
BITMAP
1C00
3E00
6B00
C980
6B00
3E00
1C00
ENDCHAR
STARTCHAR Chi
ENCODING 935
SWIDTH 875 0
DWIDTH 7 0
BBX 6 5 0 0
BITMAP
CC
78
30
78
CC
ENDCHAR
STARTCHAR Psi
ENCODING 936
SWIDTH 1125 0
DWIDTH 9 0
BBX 8 5 0 0
BITMAP
DB
DB
7E
18
18
ENDCHAR
STARTCHAR Omega
ENCODING 937
SWIDTH 1000 0
DWIDTH 8 0
BBX 7 5 0 0
BITMAP
7C
C6
C6
6C
EE
ENDCHAR
STARTCHAR Iotadiaeresis
ENCODING 938
SWIDTH 375 0
DWIDTH 3 0
BBX 6 8 -2 0
BITMAP
CC
CC
00
30
30
30
30
30
ENDCHAR
STARTCHAR Upsilondiaeresis
ENCODING 939
SWIDTH 875 0
DWIDTH 7 0
BBX 6 8 0 0
BITMAP
CC
CC
00
CC
CC
78
30
30
ENDCHAR
STARTCHAR alphatonos
ENCODING 940
SWIDTH 750 0
DWIDTH 6 0
BBX 5 7 0 0
BITMAP
60
60
00
70
D8
D8
78
ENDCHAR
STARTCHAR epsilontonos
ENCODING 941
SWIDTH 875 0
DWIDTH 7 0
BBX 6 8 0 -1
BITMAP
60
60
00
78
CC
60
CC
78
ENDCHAR
STARTCHAR etatonos
ENCODING 942
SWIDTH 750 0
DWIDTH 6 0
BBX 5 8 0 -1
BITMAP
60
60
00
F0
D8
D8
D8
18
ENDCHAR
STARTCHAR iotatonos
ENCODING 943
SWIDTH 500 0
DWIDTH 4 0
BBX 3 7 0 0
BITMAP
C0
C0
00
C0
C0
C0
60
ENDCHAR
STARTCHAR upsilondiaeresistonos
ENCODING 944
SWIDTH 750 0
DWIDTH 6 0
BBX 5 8 0 0
BITMAP
30
60
D8
00
D8
D8
D8
78
ENDCHAR
STARTCHAR alpha
ENCODING 945
SWIDTH 750 0
DWIDTH 6 0
BBX 5 4 0 0
BITMAP
70
D8
D8
78
ENDCHAR
STARTCHAR beta
ENCODING 946
SWIDTH 875 0
DWIDTH 7 0
BBX 6 5 0 0
BITMAP
78
CC
D8
CC
D8
ENDCHAR
STARTCHAR gamma
ENCODING 947
SWIDTH 750 0
DWIDTH 6 0
BBX 5 6 0 -2
BITMAP
D8
D8
D8
78
18
70
ENDCHAR
STARTCHAR delta
ENCODING 948
SWIDTH 750 0
DWIDTH 6 0
BBX 5 5 0 0
BITMAP
F8
60
70
D8
70
ENDCHAR
STARTCHAR epsilon
ENCODING 949
SWIDTH 875 0
DWIDTH 7 0
BBX 6 5 0 -1
BITMAP
78
CC
60
CC
78
ENDCHAR
STARTCHAR zeta
ENCODING 950
SWIDTH 625 0
DWIDTH 5 0
BBX 4 7 0 -2
BITMAP
F0
60
C0
C0
C0
60
C0
ENDCHAR
STARTCHAR eta
ENCODING 951
SWIDTH 750 0
DWIDTH 6 0
BBX 5 5 0 -1
BITMAP
F0
D8
D8
D8
18
ENDCHAR
STARTCHAR theta
ENCODING 952
SWIDTH 750 0
DWIDTH 6 0
BBX 5 5 0 0
BITMAP
70
D8
F8
D8
70
ENDCHAR
STARTCHAR iota
ENCODING 953
SWIDTH 500 0
DWIDTH 4 0
BBX 3 4 0 0
BITMAP
C0
C0
C0
60
ENDCHAR
STARTCHAR kappa
ENCODING 954
SWIDTH 750 0
DWIDTH 6 0
BBX 5 4 0 0
BITMAP
D8
F0
F8
D8
ENDCHAR
STARTCHAR lambda
ENCODING 955
SWIDTH 750 0
DWIDTH 6 0
BBX 5 5 0 0
BITMAP
70
18
78
D8
D8
ENDCHAR
STARTCHAR mu
ENCODING 956
SWIDTH 875 0
DWIDTH 7 0
BBX 6 6 0 -2
BITMAP
D8
D8
D8
EC
C0
C0
ENDCHAR
STARTCHAR nu
ENCODING 957
SWIDTH 1000 0
DWIDTH 8 0
BBX 7 4 0 0
BITMAP
C6
6C
6C
38
ENDCHAR
STARTCHAR xi
ENCODING 958
SWIDTH 625 0
DWIDTH 5 0
BBX 4 8 0 -2
BITMAP
60
C0
70
60
C0
C0
60
C0
ENDCHAR
STARTCHAR omicron
ENCODING 959
SWIDTH 750 0
DWIDTH 6 0
BBX 5 4 0 0
BITMAP
70
D8
D8
70
ENDCHAR
STARTCHAR pi
ENCODING 960
SWIDTH 1000 0
DWIDTH 8 0
BBX 7 4 0 0
BITMAP
FE
6C
6C
6C
ENDCHAR
STARTCHAR rho
ENCODING 961
SWIDTH 750 0
DWIDTH 6 0
BBX 5 6 0 -2
BITMAP
F0
D8
D8
F0
C0
C0
ENDCHAR
STARTCHAR sigmafinal
ENCODING 962
SWIDTH 750 0
DWIDTH 6 0
BBX 5 4 0 0
BITMAP
78
E0
38
70
ENDCHAR
STARTCHAR sigma
ENCODING 963
SWIDTH 875 0
DWIDTH 7 0
BBX 6 4 0 0
BITMAP
7C
D8
D8
70
ENDCHAR
STARTCHAR tau
ENCODING 964
SWIDTH 625 0
DWIDTH 5 0
BBX 4 4 0 0
BITMAP
F0
60
60
30
ENDCHAR
STARTCHAR upsilon
ENCODING 965
SWIDTH 875 0
DWIDTH 7 0
BBX 6 4 0 0
BITMAP
D8
CC
CC
F8
ENDCHAR
STARTCHAR phi
ENCODING 966
SWIDTH 750 0
DWIDTH 6 0
BBX 5 6 0 -2
BITMAP
70
A8
A8
70
20
20
ENDCHAR
STARTCHAR chi
ENCODING 967
SWIDTH 750 0
DWIDTH 6 0
BBX 5 4 0 0
BITMAP
D8
70
70
D8
ENDCHAR
STARTCHAR psicyril
ENCODING 968
SWIDTH 1125 0
DWIDTH 9 0
BBX 8 5 0 -1
BITMAP
DB
DB
DB
7E
18
ENDCHAR
STARTCHAR omega
ENCODING 969
SWIDTH 1125 0
DWIDTH 9 0
BBX 8 4 0 0
BITMAP
C3
DB
DB
7E
ENDCHAR
STARTCHAR iotadiaeresis
ENCODING 970
SWIDTH 500 0
DWIDTH 4 0
BBX 6 7 -2 0
BITMAP
CC
CC
00
30
30
30
18
ENDCHAR
STARTCHAR upsilondiaeresis
ENCODING 971
SWIDTH 875 0
DWIDTH 7 0
BBX 6 7 0 0
BITMAP
CC
CC
00
D8
CC
CC
F8
ENDCHAR
STARTCHAR omicrontonos
ENCODING 972
SWIDTH 750 0
DWIDTH 6 0
BBX 5 7 0 0
BITMAP
60
60
00
70
D8
D8
70
ENDCHAR
STARTCHAR upsilontonos
ENCODING 973
SWIDTH 875 0
DWIDTH 7 0
BBX 6 7 0 0
BITMAP
60
60
00
D8
CC
CC
F8
ENDCHAR
STARTCHAR omegatonos
ENCODING 974
SWIDTH 1125 0
DWIDTH 9 0
BBX 8 7 0 0
BITMAP
60
60
00
C3
DB
DB
7E
ENDCHAR
STARTCHAR uni0400
ENCODING 1024
SWIDTH 750 0
DWIDTH 6 0
BBX 5 8 0 0
BITMAP
60
30
00
F8
C0
F0
C0
F8
ENDCHAR
STARTCHAR Io
ENCODING 1025
SWIDTH 750 0
DWIDTH 6 0
BBX 5 8 0 0
BITMAP
D8
D8
00
F8
C0
F0
C0
F8
ENDCHAR
STARTCHAR Dje
ENCODING 1026
SWIDTH 1125 0
DWIDTH 9 0
BBX 8 6 0 -1
BITMAP
FC
30
3E
33
33
06
ENDCHAR
STARTCHAR Gje
ENCODING 1027
SWIDTH 750 0
DWIDTH 6 0
BBX 5 8 0 0
BITMAP
30
60
00
F8
C0
C0
C0
C0
ENDCHAR
STARTCHAR Ecyril
ENCODING 1028
SWIDTH 875 0
DWIDTH 7 0
BBX 6 5 0 0
BITMAP
78
CC
E0
CC
78
ENDCHAR
STARTCHAR Dze
ENCODING 1029
SWIDTH 875 0
DWIDTH 7 0
BBX 6 5 0 0
BITMAP
7C
E0
78
1C
F8
ENDCHAR
STARTCHAR Icyril
ENCODING 1030
SWIDTH 375 0
DWIDTH 3 0
BBX 2 5 0 0
BITMAP
C0
C0
C0
C0
C0
ENDCHAR
STARTCHAR Yi
ENCODING 1031
SWIDTH 375 0
DWIDTH 3 0
BBX 6 8 -2 0
BITMAP
CC
CC
00
30
30
30
30
30
ENDCHAR
STARTCHAR Je
ENCODING 1032
SWIDTH 750 0
DWIDTH 6 0
BBX 5 5 0 0
BITMAP
18
18
18
D8
70
ENDCHAR
STARTCHAR Lje
ENCODING 1033
SWIDTH 1375 0
DWIDTH 11 0
BBX 10 5 0 0
BITMAP
7C00
6C00
6F80
6CC0
CF80
ENDCHAR
STARTCHAR Nje
ENCODING 1034
SWIDTH 1375 0
DWIDTH 11 0
BBX 10 5 0 0
BITMAP
CC00
CC00
FF80
CCC0
CF80
ENDCHAR
STARTCHAR Tshe
ENCODING 1035
SWIDTH 1125 0
DWIDTH 9 0
BBX 8 5 0 0
BITMAP
FC
30
3E
33
33
ENDCHAR
STARTCHAR Kje
ENCODING 1036
SWIDTH 875 0
DWIDTH 7 0
BBX 6 8 0 0
BITMAP
18
30
00
CC
D8
F0
D8
CC
ENDCHAR
STARTCHAR uni040D
ENCODING 1037
SWIDTH 875 0
DWIDTH 7 0
BBX 6 8 0 0
BITMAP
CC
78
00
CC
DC
FC
EC
CC
ENDCHAR
STARTCHAR Ucyrilbreve
ENCODING 1038
SWIDTH 875 0
DWIDTH 7 0
BBX 6 8 0 0
BITMAP
CC
78
00
CC
CC
78
30
E0
ENDCHAR
STARTCHAR Dzhe
ENCODING 1039
SWIDTH 875 0
DWIDTH 7 0
BBX 6 6 0 -1
BITMAP
CC
CC
CC
CC
FC
30
ENDCHAR
STARTCHAR Acyril
ENCODING 1040
SWIDTH 875 0
DWIDTH 7 0
BBX 6 5 0 0
BITMAP
78
CC
FC
CC
CC
ENDCHAR
STARTCHAR Be
ENCODING 1041
SWIDTH 875 0
DWIDTH 7 0
BBX 6 5 0 0
BITMAP
F8
C0
F8
CC
F8
ENDCHAR
STARTCHAR Ve
ENCODING 1042
SWIDTH 875 0
DWIDTH 7 0
BBX 6 5 0 0
BITMAP
F8
CC
F8
CC
F8
ENDCHAR
STARTCHAR Ge
ENCODING 1043
SWIDTH 750 0
DWIDTH 6 0
BBX 5 5 0 0
BITMAP
F8
C0
C0
C0
C0
ENDCHAR
STARTCHAR De
ENCODING 1044
SWIDTH 1125 0
DWIDTH 9 0
BBX 8 6 0 -1
BITMAP
7E
66
66
66
7E
C3
ENDCHAR
STARTCHAR Ie
ENCODING 1045
SWIDTH 750 0
DWIDTH 6 0
BBX 5 5 0 0
BITMAP
F8
C0
F0
C0
F8
ENDCHAR
STARTCHAR Zhe
ENCODING 1046
SWIDTH 1125 0
DWIDTH 9 0
BBX 8 5 0 0
BITMAP
DB
7E
3C
7E
DB
ENDCHAR
STARTCHAR Ze
ENCODING 1047
SWIDTH 875 0
DWIDTH 7 0
BBX 6 5 0 0
BITMAP
78
CC
18
CC
78
ENDCHAR
STARTCHAR Ii
ENCODING 1048
SWIDTH 875 0
DWIDTH 7 0
BBX 6 5 0 0
BITMAP
CC
DC
FC
EC
CC
ENDCHAR
STARTCHAR Iibreve
ENCODING 1049
SWIDTH 875 0
DWIDTH 7 0
BBX 6 8 0 0
BITMAP
CC
78
00
CC
DC
FC
EC
CC
ENDCHAR
STARTCHAR Ka
ENCODING 1050
SWIDTH 875 0
DWIDTH 7 0
BBX 6 5 0 0
BITMAP
CC
D8
F0
D8
CC
ENDCHAR
STARTCHAR El
ENCODING 1051
SWIDTH 875 0
DWIDTH 7 0
BBX 6 5 0 0
BITMAP
7C
6C
6C
6C
CC
ENDCHAR
STARTCHAR Em
ENCODING 1052
SWIDTH 1000 0
DWIDTH 8 0
BBX 7 5 0 0
BITMAP
C6
EE
FE
D6
C6
ENDCHAR
STARTCHAR En
ENCODING 1053
SWIDTH 875 0
DWIDTH 7 0
BBX 6 5 0 0
BITMAP
CC
CC
FC
CC
CC
ENDCHAR
STARTCHAR Ocyril
ENCODING 1054
SWIDTH 875 0
DWIDTH 7 0
BBX 6 5 0 0
BITMAP
78
CC
CC
CC
78
ENDCHAR
STARTCHAR Pecyril
ENCODING 1055
SWIDTH 875 0
DWIDTH 7 0
BBX 6 5 0 0
BITMAP
FC
CC
CC
CC
CC
ENDCHAR
STARTCHAR Er
ENCODING 1056
SWIDTH 875 0
DWIDTH 7 0
BBX 6 5 0 0
BITMAP
F8
CC
F8
C0
C0
ENDCHAR
STARTCHAR Es
ENCODING 1057
SWIDTH 750 0
DWIDTH 6 0
BBX 5 5 0 0
BITMAP
78
C0
C0
C0
78
ENDCHAR
STARTCHAR Te
ENCODING 1058
SWIDTH 875 0
DWIDTH 7 0
BBX 6 5 0 0
BITMAP
FC
30
30
30
30
ENDCHAR
STARTCHAR Ucyril
ENCODING 1059
SWIDTH 875 0
DWIDTH 7 0
BBX 6 5 0 0
BITMAP
CC
CC
78
30
E0
ENDCHAR
STARTCHAR Ef
ENCODING 1060
SWIDTH 1250 0
DWIDTH 10 0
BBX 9 7 0 -1
BITMAP
1C00
3E00
6B00
C980
6B00
3E00
1C00
ENDCHAR
STARTCHAR Kha
ENCODING 1061
SWIDTH 875 0
DWIDTH 7 0
BBX 6 5 0 0
BITMAP
CC
78
30
78
CC
ENDCHAR
STARTCHAR Tse
ENCODING 1062
SWIDTH 1000 0
DWIDTH 8 0
BBX 7 6 0 -1
BITMAP
CC
CC
CC
CC
FC
06
ENDCHAR
STARTCHAR Che
ENCODING 1063
SWIDTH 875 0
DWIDTH 7 0
BBX 6 5 0 0
BITMAP
CC
CC
7C
0C
0C
ENDCHAR
STARTCHAR Sha
ENCODING 1064
SWIDTH 1125 0
DWIDTH 9 0
BBX 8 5 0 0
BITMAP
DB
DB
DB
DB
FF
ENDCHAR
STARTCHAR Shcha
ENCODING 1065
SWIDTH 1250 0
DWIDTH 10 0
BBX 9 6 0 -1
BITMAP
DB00
DB00
DB00
DB00
FF00
0180
ENDCHAR
STARTCHAR Hard
ENCODING 1066
SWIDTH 1125 0
DWIDTH 9 0
BBX 8 5 0 0
BITMAP
F0
30
3E
33
3E
ENDCHAR
STARTCHAR Yeri
ENCODING 1067
SWIDTH 1250 0
DWIDTH 10 0
BBX 9 5 0 0
BITMAP
C180
C180
F980
CD80
F980
ENDCHAR
STARTCHAR Soft
ENCODING 1068
SWIDTH 875 0
DWIDTH 7 0
BBX 6 5 0 0
BITMAP
C0
C0
F8
CC
F8
ENDCHAR
STARTCHAR Ecyrilrev
ENCODING 1069
SWIDTH 875 0
DWIDTH 7 0
BBX 6 5 0 0
BITMAP
78
CC
1C
CC
78
ENDCHAR
STARTCHAR Iu
ENCODING 1070
SWIDTH 1250 0
DWIDTH 10 0
BBX 9 5 0 0
BITMAP
CF00
D980
F980
D980
CF00
ENDCHAR
STARTCHAR Ia
ENCODING 1071
SWIDTH 875 0
DWIDTH 7 0
BBX 6 5 0 0
BITMAP
7C
CC
7C
6C
CC
ENDCHAR
STARTCHAR acyril
ENCODING 1072
SWIDTH 750 0
DWIDTH 6 0
BBX 5 4 0 0
BITMAP
F0
78
D8
70
ENDCHAR
STARTCHAR be
ENCODING 1073
SWIDTH 750 0
DWIDTH 6 0
BBX 5 5 0 0
BITMAP
70
C0
F0
D8
70
ENDCHAR
STARTCHAR ve
ENCODING 1074
SWIDTH 750 0
DWIDTH 6 0
BBX 5 5 0 0
BITMAP
F0
D8
F0
D8
F0
ENDCHAR
STARTCHAR ge
ENCODING 1075
SWIDTH 625 0
DWIDTH 5 0
BBX 4 4 0 0
BITMAP
F0
C0
C0
C0
ENDCHAR
STARTCHAR de
ENCODING 1076
SWIDTH 1000 0
DWIDTH 8 0
BBX 7 5 0 -1
BITMAP
7C
6C
6C
7C
C6
ENDCHAR
STARTCHAR ie
ENCODING 1077
SWIDTH 750 0
DWIDTH 6 0
BBX 5 4 0 0
BITMAP
78
D8
F0
78
ENDCHAR
STARTCHAR zhe
ENCODING 1078
SWIDTH 875 0
DWIDTH 7 0
BBX 6 4 0 0
BITMAP
B4
78
78
B4
ENDCHAR
STARTCHAR ze
ENCODING 1079
SWIDTH 750 0
DWIDTH 6 0
BBX 5 5 0 0
BITMAP
70
D8
30
D8
70
ENDCHAR
STARTCHAR ii
ENCODING 1080
SWIDTH 875 0
DWIDTH 7 0
BBX 6 4 0 0
BITMAP
CC
EC
FC
DC
ENDCHAR
STARTCHAR iibreve
ENCODING 1081
SWIDTH 875 0
DWIDTH 7 0
BBX 6 7 0 0
BITMAP
CC
78
00
CC
EC
FC
DC
ENDCHAR
STARTCHAR ka
ENCODING 1082
SWIDTH 750 0
DWIDTH 6 0
BBX 5 4 0 0
BITMAP
D8
F0
F8
D8
ENDCHAR
STARTCHAR el
ENCODING 1083
SWIDTH 875 0
DWIDTH 7 0
BBX 6 4 0 0
BITMAP
7C
6C
6C
CC
ENDCHAR
STARTCHAR em
ENCODING 1084
SWIDTH 1000 0
DWIDTH 8 0
BBX 7 4 0 0
BITMAP
C6
EE
FE
D6
ENDCHAR
STARTCHAR en
ENCODING 1085
SWIDTH 750 0
DWIDTH 6 0
BBX 5 4 0 0
BITMAP
D8
F8
D8
D8
ENDCHAR
STARTCHAR ocyril
ENCODING 1086
SWIDTH 750 0
DWIDTH 6 0
BBX 5 4 0 0
BITMAP
70
D8
D8
70
ENDCHAR
STARTCHAR pecyril
ENCODING 1087
SWIDTH 750 0
DWIDTH 6 0
BBX 5 4 0 0
BITMAP
F8
D8
D8
D8
ENDCHAR
STARTCHAR er
ENCODING 1088
SWIDTH 750 0
DWIDTH 6 0
BBX 5 5 0 -1
BITMAP
F0
D8
D8
F0
C0
ENDCHAR
STARTCHAR es
ENCODING 1089
SWIDTH 750 0
DWIDTH 6 0
BBX 5 4 0 0
BITMAP
78
C0
C0
78
ENDCHAR
STARTCHAR te
ENCODING 1090
SWIDTH 875 0
DWIDTH 7 0
BBX 6 4 0 0
BITMAP
FC
30
30
30
ENDCHAR
STARTCHAR ucyril
ENCODING 1091
SWIDTH 875 0
DWIDTH 7 0
BBX 6 5 0 -1
BITMAP
CC
CC
78
30
E0
ENDCHAR
STARTCHAR ef
ENCODING 1092
SWIDTH 1000 0
DWIDTH 8 0
BBX 7 5 0 0
BITMAP
10
7C
D6
7C
10
ENDCHAR
STARTCHAR kha
ENCODING 1093
SWIDTH 750 0
DWIDTH 6 0
BBX 5 4 0 0
BITMAP
D8
70
70
D8
ENDCHAR
STARTCHAR tse
ENCODING 1094
SWIDTH 875 0
DWIDTH 7 0
BBX 6 5 0 -1
BITMAP
D8
D8
D8
F8
0C
ENDCHAR
STARTCHAR che
ENCODING 1095
SWIDTH 750 0
DWIDTH 6 0
BBX 5 4 0 0
BITMAP
D8
D8
78
18
ENDCHAR
STARTCHAR sha
ENCODING 1096
SWIDTH 1125 0
DWIDTH 9 0
BBX 8 4 0 0
BITMAP
DB
DB
DB
FF
ENDCHAR
STARTCHAR shcha
ENCODING 1097
SWIDTH 1250 0
DWIDTH 10 0
BBX 9 5 0 -1
BITMAP
DB00
DB00
DB00
FF00
0180
ENDCHAR
STARTCHAR hard
ENCODING 1098
SWIDTH 1000 0
DWIDTH 8 0
BBX 7 4 0 0
BITMAP
F0
3C
36
3C
ENDCHAR
STARTCHAR yeri
ENCODING 1099
SWIDTH 1125 0
DWIDTH 9 0
BBX 8 4 0 0
BITMAP
C3
F3
DB
F3
ENDCHAR
STARTCHAR soft
ENCODING 1100
SWIDTH 750 0
DWIDTH 6 0
BBX 5 4 0 0
BITMAP
C0
F0
D8
F0
ENDCHAR
STARTCHAR ecyrilrev
ENCODING 1101
SWIDTH 750 0
DWIDTH 6 0
BBX 5 5 0 0
BITMAP
70
D8
38
D8
70
ENDCHAR
STARTCHAR iu
ENCODING 1102
SWIDTH 1000 0
DWIDTH 8 0
BBX 7 4 0 0
BITMAP
DC
F6
F6
DC
ENDCHAR
STARTCHAR ia
ENCODING 1103
SWIDTH 750 0
DWIDTH 6 0
BBX 5 4 0 0
BITMAP
78
D8
78
D8
ENDCHAR
STARTCHAR uni0450
ENCODING 1104
SWIDTH 750 0
DWIDTH 6 0
BBX 5 7 0 0
BITMAP
60
30
00
78
D8
F0
78
ENDCHAR
STARTCHAR io
ENCODING 1105
SWIDTH 750 0
DWIDTH 6 0
BBX 5 7 0 0
BITMAP
D8
D8
00
78
D8
F0
78
ENDCHAR
STARTCHAR dje
ENCODING 1106
SWIDTH 1000 0
DWIDTH 8 0
BBX 7 6 0 -1
BITMAP
F8
60
7C
66
66
0C
ENDCHAR
STARTCHAR gje
ENCODING 1107
SWIDTH 625 0
DWIDTH 5 0
BBX 4 7 0 0
BITMAP
30
60
00
F0
C0
C0
C0
ENDCHAR
STARTCHAR ecyril
ENCODING 1108
SWIDTH 750 0
DWIDTH 6 0
BBX 5 5 0 0
BITMAP
70
D8
E0
D8
70
ENDCHAR
STARTCHAR dze
ENCODING 1109
SWIDTH 750 0
DWIDTH 6 0
BBX 5 4 0 0
BITMAP
78
E0
38
F0
ENDCHAR
STARTCHAR icyril
ENCODING 1110
SWIDTH 375 0
DWIDTH 3 0
BBX 2 5 0 0
BITMAP
C0
00
C0
C0
C0
ENDCHAR
STARTCHAR yi
ENCODING 1111
SWIDTH 375 0
DWIDTH 3 0
BBX 6 8 -2 0
BITMAP
CC
CC
00
30
30
30
30
30
ENDCHAR
STARTCHAR je
ENCODING 1112
SWIDTH 500 0
DWIDTH 4 0
BBX 3 6 0 -1
BITMAP
60
00
60
60
60
C0
ENDCHAR
STARTCHAR lje
ENCODING 1113
SWIDTH 1250 0
DWIDTH 10 0
BBX 9 4 0 0
BITMAP
7C00
6F00
6D80
CF00
ENDCHAR
STARTCHAR nje
ENCODING 1114
SWIDTH 1125 0
DWIDTH 9 0
BBX 8 4 0 0
BITMAP
D8
FE
DB
DE
ENDCHAR
STARTCHAR tshe
ENCODING 1115
SWIDTH 875 0
DWIDTH 7 0
BBX 6 5 0 0
BITMAP
F8
60
78
6C
6C
ENDCHAR
STARTCHAR kje
ENCODING 1116
SWIDTH 750 0
DWIDTH 6 0
BBX 6 7 0 0
BITMAP
0C
18
C0
D8
F0
D8
D8
ENDCHAR
STARTCHAR uni045D
ENCODING 1117
SWIDTH 875 0
DWIDTH 7 0
BBX 6 7 0 0
BITMAP
CC
78
00
CC
DC
FC
EC
ENDCHAR
STARTCHAR ucyrilbreve
ENCODING 1118
SWIDTH 875 0
DWIDTH 7 0
BBX 6 8 0 -1
BITMAP
CC
78
00
CC
CC
78
30
E0
ENDCHAR
STARTCHAR dzhe
ENCODING 1119
SWIDTH 875 0
DWIDTH 7 0
BBX 6 5 0 -1
BITMAP
CC
CC
CC
FC
30
ENDCHAR
STARTCHAR uni0460
ENCODING 1120
SWIDTH 1250 0
DWIDTH 10 0
BBX 9 5 0 0
BITMAP
6300
D580
C180
C980
7700
ENDCHAR
STARTCHAR uni0461
ENCODING 1121
SWIDTH 1125 0
DWIDTH 9 0
BBX 8 4 0 0
BITMAP
DB
DB
DB
7E
ENDCHAR
STARTCHAR Yat
ENCODING 1122
SWIDTH 1000 0
DWIDTH 8 0
BBX 7 5 0 0
BITMAP
F8
60
7C
66
7C
ENDCHAR
STARTCHAR yat
ENCODING 1123
SWIDTH 875 0
DWIDTH 7 0
BBX 6 5 0 0
BITMAP
F8
60
78
6C
78
ENDCHAR
STARTCHAR uni0464
ENCODING 1124
SWIDTH 1250 0
DWIDTH 10 0
BBX 9 5 0 0
BITMAP
CF00
D980
FC00
D980
CF00
ENDCHAR
STARTCHAR uni0465
ENCODING 1125
SWIDTH 1000 0
DWIDTH 8 0
BBX 7 5 0 0
BITMAP
DC
F6
F8
F6
DC
ENDCHAR
STARTCHAR uni0466
ENCODING 1126
SWIDTH 1250 0
DWIDTH 10 0
BBX 9 5 0 0
BITMAP
0800
1400
3600
6B00
C980
ENDCHAR
STARTCHAR uni0467
ENCODING 1127
SWIDTH 1000 0
DWIDTH 8 0
BBX 7 4 0 0
BITMAP
10
28
7C
D6
ENDCHAR
STARTCHAR uni0468
ENCODING 1128
SWIDTH 1500 0
DWIDTH 12 0
BBX 11 5 0 0
BITMAP
C200
C500
FD80
DAC0
F260
ENDCHAR
STARTCHAR uni0469
ENCODING 1129
SWIDTH 1250 0
DWIDTH 10 0
BBX 9 4 0 0
BITMAP
C400
FA00
DF00
F580
ENDCHAR
STARTCHAR Yusbig
ENCODING 1130
SWIDTH 1000 0
DWIDTH 8 0
BBX 7 5 0 0
BITMAP
FE
6C
38
7C
D6
ENDCHAR
STARTCHAR yusbig
ENCODING 1131
SWIDTH 1000 0
DWIDTH 8 0
BBX 7 4 0 0
BITMAP
FE
6C
7C
D6
ENDCHAR
STARTCHAR uni046C
ENCODING 1132
SWIDTH 1375 0
DWIDTH 11 0
BBX 10 5 0 0
BITMAP
DFC0
CD80
FF00
CF80
DAC0
ENDCHAR
STARTCHAR uni046D
ENCODING 1133
SWIDTH 1375 0
DWIDTH 11 0
BBX 10 4 0 0
BITMAP
DFC0
CD80
FF80
DAC0
ENDCHAR
STARTCHAR uni046E
ENCODING 1134
SWIDTH 875 0
DWIDTH 7 0
BBX 6 10 0 -2
BITMAP
CC
78
00
78
8C
38
0C
78
C0
78
ENDCHAR
STARTCHAR uni046F
ENCODING 1135
SWIDTH 750 0
DWIDTH 6 0
BBX 5 10 0 -2
BITMAP
D8
70
00
70
98
30
18
70
C0
70
ENDCHAR
STARTCHAR Psicyril
ENCODING 1136
SWIDTH 1125 0
DWIDTH 9 0
BBX 8 5 0 0
BITMAP
DB
DB
7E
18
18
ENDCHAR
STARTCHAR psicyril.dup2
ENCODING 1137
SWIDTH 1125 0
DWIDTH 9 0
BBX 8 5 0 -1
BITMAP
DB
DB
DB
7E
18
ENDCHAR
STARTCHAR Fita
ENCODING 1138
SWIDTH 875 0
DWIDTH 7 0
BBX 6 5 0 0
BITMAP
78
CC
FC
CC
78
ENDCHAR
STARTCHAR fita
ENCODING 1139
SWIDTH 750 0
DWIDTH 6 0
BBX 5 5 0 0
BITMAP
70
D8
F8
D8
70
ENDCHAR
STARTCHAR Izhitsa
ENCODING 1140
SWIDTH 1000 0
DWIDTH 8 0
BBX 7 5 0 0
BITMAP
C6
CC
CC
6C
38
ENDCHAR
STARTCHAR izhitsa
ENCODING 1141
SWIDTH 1000 0
DWIDTH 8 0
BBX 7 4 0 0
BITMAP
C6
CC
6C
38
ENDCHAR
STARTCHAR Izhitsagravedbl
ENCODING 1142
SWIDTH 1000 0
DWIDTH 8 0
BBX 7 8 0 0
BITMAP
60
30
00
C6
CC
CC
6C
38
ENDCHAR
STARTCHAR izhitsagravedbl
ENCODING 1143
SWIDTH 1000 0
DWIDTH 8 0
BBX 7 7 0 0
BITMAP
60
30
00
C6
CC
6C
38
ENDCHAR
STARTCHAR Digraphuk
ENCODING 1144
SWIDTH 1375 0
DWIDTH 11 0
BBX 10 6 0 -1
BITMAP
7800
FCC0
FCC0
FF80
7B00
0E00
ENDCHAR
STARTCHAR digraphuk
ENCODING 1145
SWIDTH 1375 0
DWIDTH 11 0
BBX 10 5 0 -1
BITMAP
7800
FCC0
FF80
7B00
0E00
ENDCHAR
STARTCHAR Omegaround
ENCODING 1146
SWIDTH 1000 0
DWIDTH 8 0
BBX 7 7 0 -1
BITMAP
10
7C
C6
C6
C6
7C
10
ENDCHAR
STARTCHAR omegaround
ENCODING 1147
SWIDTH 1000 0
DWIDTH 8 0
BBX 7 6 0 -1
BITMAP
10
7C
C6
C6
7C
10
ENDCHAR
STARTCHAR Omegatitlo
ENCODING 1148
SWIDTH 1250 0
DWIDTH 10 0
BBX 9 7 0 0
BITMAP
1800
3000
6300
D580
C180
C980
7700
ENDCHAR
STARTCHAR omegatitlo
ENCODING 1149
SWIDTH 1250 0
DWIDTH 10 0
BBX 9 6 0 0
BITMAP
1800
3000
6300
D580
C980
7700
ENDCHAR
STARTCHAR OT
ENCODING 1150
SWIDTH 1000 0
DWIDTH 8 0
BBX 9 7 0 0
BITMAP
3E00
0000
6300
D580
C180
C980
7700
ENDCHAR
STARTCHAR ot
ENCODING 1151
SWIDTH 1125 0
DWIDTH 9 0
BBX 8 6 0 0
BITMAP
7E
00
DB
DB
DB
7E
ENDCHAR
STARTCHAR hyphen
ENCODING 8208
SWIDTH 500 0
DWIDTH 4 0
BBX 3 1 0 2
BITMAP
E0
ENDCHAR
STARTCHAR endash
ENCODING 8211
SWIDTH 625 0
DWIDTH 5 0
BBX 4 1 0 2
BITMAP
F0
ENDCHAR
STARTCHAR emdash
ENCODING 8212
SWIDTH 750 0
DWIDTH 6 0
BBX 5 1 0 2
BITMAP
F8
ENDCHAR
STARTCHAR quoteleft
ENCODING 8216
SWIDTH 500 0
DWIDTH 4 0
BBX 3 3 0 2
BITMAP
60
C0
C0
ENDCHAR
STARTCHAR quoteright
ENCODING 8217
SWIDTH 500 0
DWIDTH 4 0
BBX 3 3 0 2
BITMAP
60
60
C0
ENDCHAR
STARTCHAR quotesinglbase
ENCODING 8218
SWIDTH 500 0
DWIDTH 4 0
BBX 3 3 0 -2
BITMAP
60
60
C0
ENDCHAR
STARTCHAR quotedblleft
ENCODING 8220
SWIDTH 875 0
DWIDTH 7 0
BBX 6 3 0 2
BITMAP
6C
D8
D8
ENDCHAR
STARTCHAR quotedblright
ENCODING 8221
SWIDTH 875 0
DWIDTH 7 0
BBX 6 3 0 2
BITMAP
6C
6C
D8
ENDCHAR
STARTCHAR quotedblbase
ENCODING 8222
SWIDTH 875 0
DWIDTH 7 0
BBX 6 3 0 -2
BITMAP
6C
6C
D8
ENDCHAR
STARTCHAR dagger
ENCODING 8224
SWIDTH 625 0
DWIDTH 5 0
BBX 4 4 0 0
BITMAP
60
F0
60
60
ENDCHAR
STARTCHAR daggerdbl
ENCODING 8225
SWIDTH 625 0
DWIDTH 5 0
BBX 4 7 0 -1
BITMAP
60
60
F0
60
F0
60
60
ENDCHAR
STARTCHAR bullet
ENCODING 8226
SWIDTH 375 0
DWIDTH 3 0
BBX 2 2 0 2
BITMAP
C0
C0
ENDCHAR
STARTCHAR ellipsis
ENCODING 8230
SWIDTH 1125 0
DWIDTH 9 0
BBX 8 2 0 0
BITMAP
DB
DB
ENDCHAR
STARTCHAR perthousand
ENCODING 8240
SWIDTH 1250 0
DWIDTH 10 0
BBX 9 5 0 0
BITMAP
CC00
D800
3000
6D80
CD80
ENDCHAR
STARTCHAR guilsinglleft
ENCODING 8249
SWIDTH 500 0
DWIDTH 4 0
BBX 3 3 0 1
BITMAP
60
C0
60
ENDCHAR
STARTCHAR guilsinglright
ENCODING 8250
SWIDTH 500 0
DWIDTH 4 0
BBX 3 3 0 1
BITMAP
C0
60
C0
ENDCHAR
STARTCHAR currency.dup3
ENCODING 8364
SWIDTH 1000 0
DWIDTH 8 0
BBX 7 5 0 0
BITMAP
3C
66
F0
66
3C
ENDCHAR
STARTCHAR servicemark
ENCODING 8480
SWIDTH 1125 0
DWIDTH 9 0
BBX 8 3 0 2
BITMAP
6A
55
D5
ENDCHAR
STARTCHAR trademark
ENCODING 8482
SWIDTH 1125 0
DWIDTH 9 0
BBX 8 3 0 2
BITMAP
EA
55
55
ENDCHAR
STARTCHAR Omega.dup4
ENCODING 8486
SWIDTH 1000 0
DWIDTH 8 0
BBX 7 5 0 0
BITMAP
7C
C6
C6
6C
EE
ENDCHAR
STARTCHAR arrowleft
ENCODING 8592
SWIDTH 750 0
DWIDTH 6 0
BBX 5 5 0 0
BITMAP
20
40
F8
40
20
ENDCHAR
STARTCHAR arrowup
ENCODING 8593
SWIDTH 750 0
DWIDTH 6 0
BBX 5 5 0 0
BITMAP
20
70
A8
20
20
ENDCHAR
STARTCHAR arrowright
ENCODING 8594
SWIDTH 750 0
DWIDTH 6 0
BBX 5 5 0 0
BITMAP
20
10
F8
10
20
ENDCHAR
STARTCHAR arrowdown
ENCODING 8595
SWIDTH 750 0
DWIDTH 6 0
BBX 5 5 0 0
BITMAP
20
20
A8
70
20
ENDCHAR
STARTCHAR arrowlongboth
ENCODING 8596
SWIDTH 1250 0
DWIDTH 10 0
BBX 9 5 0 0
BITMAP
2200
4100
FF80
4100
2200
ENDCHAR
STARTCHAR arrowlongbothv
ENCODING 8597
SWIDTH 750 0
DWIDTH 6 0
BBX 5 9 0 -2
BITMAP
20
70
A8
20
20
20
A8
70
20
ENDCHAR
STARTCHAR arrownorthwest
ENCODING 8598
SWIDTH 750 0
DWIDTH 6 0
BBX 5 5 0 0
BITMAP
F8
C0
A0
90
88
ENDCHAR
STARTCHAR arrownortheast
ENCODING 8599
SWIDTH 750 0
DWIDTH 6 0
BBX 5 5 0 0
BITMAP
F8
18
28
48
88
ENDCHAR
STARTCHAR arrowsoutheast
ENCODING 8600
SWIDTH 750 0
DWIDTH 6 0
BBX 5 5 0 0
BITMAP
88
48
28
18
F8
ENDCHAR
STARTCHAR arrowsouthwest
ENCODING 8601
SWIDTH 750 0
DWIDTH 6 0
BBX 5 5 0 0
BITMAP
88
90
A0
C0
F8
ENDCHAR
STARTCHAR arrowrightdown
ENCODING 8628
SWIDTH 750 0
DWIDTH 6 0
BBX 5 5 0 0
BITMAP
E0
20
A8
70
20
ENDCHAR
STARTCHAR carriagerreturn
ENCODING 8629
SWIDTH 750 0
DWIDTH 6 0
BBX 5 5 0 0
BITMAP
28
48
F8
40
20
ENDCHAR
STARTCHAR arrowdashleft
ENCODING 8672
SWIDTH 1000 0
DWIDTH 8 0
BBX 7 5 0 0
BITMAP
20
40
EA
40
20
ENDCHAR
STARTCHAR arrowdashup
ENCODING 8673
SWIDTH 750 0
DWIDTH 6 0
BBX 5 7 0 -1
BITMAP
20
70
A8
00
20
00
20
ENDCHAR
STARTCHAR arrowdashright
ENCODING 8674
SWIDTH 1000 0
DWIDTH 8 0
BBX 7 5 0 0
BITMAP
08
04
AE
04
08
ENDCHAR
STARTCHAR arrowdashdown
ENCODING 8675
SWIDTH 750 0
DWIDTH 6 0
BBX 5 7 0 -1
BITMAP
20
00
20
00
A8
70
20
ENDCHAR
STARTCHAR partialdiff
ENCODING 8706
SWIDTH 750 0
DWIDTH 6 0
BBX 5 6 0 0
BITMAP
60
30
78
D8
D8
70
ENDCHAR
STARTCHAR Delta.dup5
ENCODING 8710
SWIDTH 1000 0
DWIDTH 8 0
BBX 7 5 0 0
BITMAP
38
6C
6C
C6
FE
ENDCHAR
STARTCHAR product
ENCODING 8719
SWIDTH 1000 0
DWIDTH 8 0
BBX 7 5 0 0
BITMAP
FE
6C
6C
6C
6C
ENDCHAR
STARTCHAR summation
ENCODING 8721
SWIDTH 875 0
DWIDTH 7 0
BBX 6 5 0 0
BITMAP
FC
6C
30
6C
FC
ENDCHAR
STARTCHAR minus.dup6
ENCODING 8722
SWIDTH 625 0
DWIDTH 5 0
BBX 4 1 0 2
BITMAP
F0
ENDCHAR
STARTCHAR periodcentered.dup7
ENCODING 8729
SWIDTH 375 0
DWIDTH 3 0
BBX 2 2 0 2
BITMAP
C0
C0
ENDCHAR
STARTCHAR radical
ENCODING 8730
SWIDTH 875 0
DWIDTH 7 0
BBX 6 5 0 -1
BITMAP
0C
18
D0
70
20
ENDCHAR
STARTCHAR infinity
ENCODING 8734
SWIDTH 1250 0
DWIDTH 10 0
BBX 9 3 0 1
BITMAP
7700
DD80
7700
ENDCHAR
STARTCHAR integral
ENCODING 8747
SWIDTH 625 0
DWIDTH 5 0
BBX 4 7 0 -1
BITMAP
30
60
60
60
60
60
C0
ENDCHAR
STARTCHAR approxequal
ENCODING 8776
SWIDTH 875 0
DWIDTH 7 0
BBX 6 5 0 1
BITMAP
6C
D8
00
6C
D8
ENDCHAR
STARTCHAR notequal
ENCODING 8800
SWIDTH 875 0
DWIDTH 7 0
BBX 6 5 0 0
BITMAP
18
FC
30
FC
60
ENDCHAR
STARTCHAR lessequal
ENCODING 8804
SWIDTH 500 0
DWIDTH 4 0
BBX 3 5 0 0
BITMAP
60
C0
60
00
E0
ENDCHAR
STARTCHAR greaterequal
ENCODING 8805
SWIDTH 500 0
DWIDTH 4 0
BBX 3 5 0 0
BITMAP
C0
60
C0
00
E0
ENDCHAR
STARTCHAR approxequal.dup8
ENCODING 8946
SWIDTH 875 0
DWIDTH 7 0
BBX 6 5 0 1
BITMAP
6C
D8
00
6C
D8
ENDCHAR
STARTCHAR lozenge
ENCODING 9674
SWIDTH 750 0
DWIDTH 6 0
BBX 5 3 0 2
BITMAP
70
D8
70
ENDCHAR
STARTCHAR apple
ENCODING 61440
SWIDTH 3000 0
DWIDTH 24 0
BBX 23 3 0 0
BITMAP
FAEBE8
AAAAA8
AAAAAE
ENDCHAR
STARTCHAR fi
ENCODING 61441
SWIDTH 750 0
DWIDTH 6 0
BBX 5 5 0 0
BITMAP
78
C0
F8
D8
D8
ENDCHAR
STARTCHAR fl
ENCODING 61442
SWIDTH 625 0
DWIDTH 5 0
BBX 5 5 0 0
BITMAP
78
D8
F8
D8
D8
ENDCHAR
STARTCHAR .notdef
ENCODING -1
SWIDTH 500 0
DWIDTH 4 0
BBX 1 7 3 0
BITMAP
80
80
80
80
80
80
80
ENDCHAR
ENDFONT
